<svg xmlns="http://www.w3.org/2000/svg" width="75" height="74" viewBox="0 0 75 74"><defs><clipPath id="3iqfa"><path fill="#fff" d="M37.5 0C58.21 0 75 16.375 75 36.574c0 20.2-16.79 36.574-37.5 36.574S0 56.773 0 36.574C0 16.375 16.79 0 37.5 0z"/></clipPath><linearGradient id="3iqfe" x1="38" x2="38" y1="52" y2="20" gradientUnits="userSpaceOnUse"><stop offset="0" stop-opacity=".96"/><stop offset=".5" stop-color="#d0d0d0" stop-opacity=".96"/><stop offset="1" stop-color="#9e9e9e" stop-opacity=".96"/></linearGradient><filter id="3iqfc" width="200%" height="200%" x="-50%" y="-50%"><feGaussianBlur in="SourceGraphic" result="FeGaussianBlur1153Out" stdDeviation="6.5 6.5"/></filter><mask id="3iqfd"><path fill="#fff" d="M60.819 42.784c-1.917.859-4.234 1.618-6.85 2.237l-.136-22.225C49.988 21.084 44.286 20 37.925 20c-6.366 0-12.067 1.084-15.912 2.796v22.223c-2.61-.619-4.919-1.379-6.832-2.235L13 47.567C19.28 50.35 28.119 51.988 37.998 52c9.878-.012 18.725-1.65 25.003-4.433z"/></mask><filter id="3iqff" width="200%" height="200%" x="-50%" y="-50%"><feGaussianBlur in="SourceGraphic" result="FeGaussianBlur1160Out" stdDeviation="0 0"/></filter><mask id="3iqfg"><path fill="#fff" d="M60.819 42.784c-1.917.859-4.234 1.618-6.85 2.237l-.136-22.225C49.988 21.084 44.286 20 37.925 20c-6.366 0-12.067 1.084-15.912 2.796v22.223c-2.61-.619-4.919-1.379-6.832-2.235L13 47.567C19.28 50.35 28.119 51.988 37.998 52c9.878-.012 18.725-1.65 25.003-4.433z"/></mask><clipPath id="3iqfb"><path d="M37.5 0C58.21 0 75 16.375 75 36.574c0 20.2-16.79 36.574-37.5 36.574S0 56.773 0 36.574C0 16.375 16.79 0 37.5 0z"/></clipPath></defs><g><g><g><path fill="#1c242a" d="M37.5 0C58.21 0 75 16.375 75 36.574c0 20.2-16.79 36.574-37.5 36.574S0 56.773 0 36.574C0 16.375 16.79 0 37.5 0z"/><path fill="none" stroke="#000" stroke-linecap="round" stroke-linejoin="round" stroke-miterlimit="20" stroke-width="6" d="M37.5 0C58.21 0 75 16.375 75 36.574c0 20.2-16.79 36.574-37.5 36.574S0 56.773 0 36.574C0 16.375 16.79 0 37.5 0z" clip-path="url(&quot;#3iqfa&quot;)"/></g><g clip-path="url(#3iqfb)"><path fill="#fff" fill-opacity=".24" d="M0 65V7h76v58zm60.819-22.216c-1.917.859-4.234 1.618-6.85 2.237l-.136-22.225C49.988 21.084 44.286 20 37.925 20c-6.366 0-12.067 1.084-15.912 2.796v22.223c-2.61-.619-4.919-1.379-6.832-2.235L13 47.567C19.28 50.35 28.119 51.988 37.998 52c9.878-.012 18.725-1.65 25.003-4.433z" filter="url(#3iqfc)" mask="url(&quot;#3iqfd&quot;)"/><path fill="#bb9c66" d="M60.819 42.784c-1.917.859-4.234 1.618-6.85 2.237l-.136-22.225C49.988 21.084 44.286 20 37.925 20c-6.366 0-12.067 1.084-15.912 2.796v22.223c-2.61-.619-4.919-1.379-6.832-2.235L13 47.567C19.28 50.35 28.119 51.988 37.998 52c9.878-.012 18.725-1.65 25.003-4.433z"/><path fill="url(#3iqfe)" d="M60.819 42.784c-1.917.859-4.234 1.618-6.85 2.237l-.136-22.225C49.988 21.084 44.286 20 37.925 20c-6.366 0-12.067 1.084-15.912 2.796v22.223c-2.61-.619-4.919-1.379-6.832-2.235L13 47.567C19.28 50.35 28.119 51.988 37.998 52c9.878-.012 18.725-1.65 25.003-4.433z"/><path fill="#fff" fill-opacity=".24" d="M0 65V7h76v58zm60.819-22.216c-1.917.859-4.234 1.618-6.85 2.237l-.136-22.225C49.988 21.084 44.286 20 37.925 20c-6.366 0-12.067 1.084-15.912 2.796v22.223c-2.61-.619-4.919-1.379-6.832-2.235L13 47.567C19.28 50.35 28.119 51.988 37.998 52c9.878-.012 18.725-1.65 25.003-4.433z" filter="url(#3iqfc)" mask="url(&quot;#3iqfd&quot;)"/><path fill="#fff1d8" fill-opacity=".44" d="M13 53v-4.432c6.28 2.782 15.115 4.42 24.99 4.432zm0-34h50v29.565l-2.181-4.78c-1.917.858-4.234 1.617-6.85 2.236l-.136-22.225C49.988 22.084 44.286 21 37.925 21c-6.366 0-12.067 1.084-15.912 2.796v22.223c-2.61-.619-4.919-1.379-6.832-2.235L13 48.564zm50 34H38.006c9.875-.013 18.718-1.65 24.994-4.432zm-50.001-4.433H13v-.002zM37.998 53h.008-.016.008zM63 48.567L63 48.565v.003h.001z" filter="url(#3iqff)" mask="url(&quot;#3iqfg&quot;)"/></g></g></g></svg>