<svg xmlns="http://www.w3.org/2000/svg" width="75" height="74" viewBox="0 0 75 74"><defs><clipPath id="r0kca"><path fill="#fff" d="M37.5 0C58.21 0 75 16.375 75 36.574c0 20.2-16.79 36.575-37.5 36.575S0 56.773 0 36.574 16.79 0 37.5 0z"/></clipPath><linearGradient id="r0kce" x1="37" x2="37" y1="55" y2="19" gradientUnits="userSpaceOnUse"><stop offset="0" stop-opacity=".96"/><stop offset=".5" stop-color="#d0d0d0" stop-opacity=".96"/><stop offset="1" stop-color="#9e9e9e" stop-opacity=".96"/></linearGradient><filter id="r0kcc" width="200%" height="200%" x="-50%" y="-50%"><feGaussianBlur in="SourceGraphic" result="FeGaussianBlur1345Out" stdDeviation="6.5 6.5"/></filter><mask id="r0kcd"><path fill="#fff" d="M52.999 50.546c0 1.604-1.445 2.904-3.23 2.904-1.054 0-2.118-.809-2.118-.809-.252-.192-.535-.727-.844-.727h-2.065c-.31 0-1.282.538-1.534.734 0 0-1.478 1.158-2.83 1.158h-.258c-.268-.037-.692.1-.938.3 0 0-1.109.893-2.212.893-1.147 0-2.286-.974-2.286-.974-.243-.205-.69-.325-.993-.262 0 0-.21.043-.616.043-1.352 0-2.83-1.158-2.83-1.158-.25-.196-.678-.734-.987-.734h-2.064c-.31 0-.592.535-.847.727 0 0-1.062.81-2.116.81-1.784 0-3.23-1.301-3.23-2.905 0-1.187 1.467-2.306 1.467-2.306.252-.196.597-.106.597-.44V27.23c0-.335-.345-1.062-.597-1.253 0 0-1.467-1.118-1.467-2.305 0-1.604 1.446-2.905 3.23-2.905.942 0 1.897.628 1.897.628.263.174.759.692 1.066.692h2.064c.31 0 1.058-.518 1.324-.692 0 0 1.316-.86 2.493-.86h.28c.29.042.714-.113.944-.337 0 0 1.207-1.196 2.471-1.196 1.26 0 2.466 1.186 2.466 1.186.228.226.63.38.895.346h.247c1.18 0 2.496.86 2.496.86.266.175.526.693.836.693h3.096c.31 0 .803-.518 1.066-.692 0 0 .955-.628 1.897-.628 1.785 0 3.23 1.3 3.23 2.905 0 1.187-1.467 2.305-1.467 2.305-.252.19-.596.918-.596 1.253v19.543c0 .333.344 1.274.596 1.468 0 0 1.467 1.12 1.467 2.306zM46.807 26.2H27.194v21.6h19.613z"/></mask><filter id="r0kcf" width="200%" height="200%" x="-50%" y="-50%"><feGaussianBlur in="SourceGraphic" result="FeGaussianBlur1352Out" stdDeviation="0 0"/></filter><mask id="r0kcg"><path fill="#fff" d="M52.999 50.546c0 1.604-1.445 2.904-3.23 2.904-1.054 0-2.118-.809-2.118-.809-.252-.192-.535-.727-.844-.727h-2.065c-.31 0-1.282.538-1.534.734 0 0-1.478 1.158-2.83 1.158h-.258c-.268-.037-.692.1-.938.3 0 0-1.109.893-2.212.893-1.147 0-2.286-.974-2.286-.974-.243-.205-.69-.325-.993-.262 0 0-.21.043-.616.043-1.352 0-2.83-1.158-2.83-1.158-.25-.196-.678-.734-.987-.734h-2.064c-.31 0-.592.535-.847.727 0 0-1.062.81-2.116.81-1.784 0-3.23-1.301-3.23-2.905 0-1.187 1.467-2.306 1.467-2.306.252-.196.597-.106.597-.44V27.23c0-.335-.345-1.062-.597-1.253 0 0-1.467-1.118-1.467-2.305 0-1.604 1.446-2.905 3.23-2.905.942 0 1.897.628 1.897.628.263.174.759.692 1.066.692h2.064c.31 0 1.058-.518 1.324-.692 0 0 1.316-.86 2.493-.86h.28c.29.042.714-.113.944-.337 0 0 1.207-1.196 2.471-1.196 1.26 0 2.466 1.186 2.466 1.186.228.226.63.38.895.346h.247c1.18 0 2.496.86 2.496.86.266.175.526.693.836.693h3.096c.31 0 .803-.518 1.066-.692 0 0 .955-.628 1.897-.628 1.785 0 3.23 1.3 3.23 2.905 0 1.187-1.467 2.305-1.467 2.305-.252.19-.596.918-.596 1.253v19.543c0 .333.344 1.274.596 1.468 0 0 1.467 1.12 1.467 2.306zM46.807 26.2H27.194v21.6h19.613z"/></mask><clipPath id="r0kcb"><path d="M37.5 0C58.21 0 75 16.375 75 36.574c0 20.2-16.79 36.575-37.5 36.575S0 56.773 0 36.574 16.79 0 37.5 0z"/></clipPath></defs><g><g><g><path fill="#1c242a" d="M37.5 0C58.21 0 75 16.375 75 36.574c0 20.2-16.79 36.575-37.5 36.575S0 56.773 0 36.574 16.79 0 37.5 0z"/><path fill="none" stroke="#000" stroke-linecap="round" stroke-linejoin="round" stroke-miterlimit="20" stroke-width="6" d="M37.5 0C58.21 0 75 16.375 75 36.574c0 20.2-16.79 36.575-37.5 36.575S0 56.773 0 36.574 16.79 0 37.5 0z" clip-path="url(&quot;#r0kca&quot;)"/></g><g clip-path="url(#r0kcb)"><path fill="#fff" fill-opacity=".24" d="M8 68V6h58v62zm44.999-17.454c0-1.187-1.467-2.306-1.467-2.306-.252-.194-.596-1.135-.596-1.468V27.229c0-.335.344-1.062.596-1.253 0 0 1.467-1.118 1.467-2.305 0-1.604-1.445-2.905-3.23-2.905-.942 0-1.897.628-1.897.628-.263.174-.756.692-1.066.692H43.71c-.31 0-.57-.518-.836-.692 0 0-1.317-.86-2.496-.86h-.247c-.265.033-.667-.12-.895-.346 0 0-1.207-1.187-2.466-1.187-1.264 0-2.471 1.196-2.471 1.196-.23.224-.655.379-.945.337h-.279c-1.177 0-2.493.86-2.493.86-.266.174-1.015.692-1.324.692h-2.064c-.307 0-.803-.518-1.066-.692 0 0-.955-.628-1.897-.628-1.784 0-3.23 1.3-3.23 2.905 0 1.187 1.467 2.305 1.467 2.305.252.19.597.918.597 1.253V47.8c0 .334-.345.244-.597.44 0 0-1.467 1.12-1.467 2.306 0 1.604 1.446 2.904 3.23 2.904 1.054 0 2.116-.809 2.116-.809.255-.192.537-.727.847-.727h2.064c.31 0 .738.538.987.734 0 0 1.478 1.158 2.83 1.158.405 0 .616-.043.616-.043.304-.063.75.057.993.262 0 0 1.139.974 2.286.974 1.103 0 2.212-.893 2.212-.893.246-.2.67-.337.938-.3h.258c1.352 0 2.83-1.158 2.83-1.158.252-.196 1.225-.734 1.534-.734h2.065c.309 0 .592.535.844.727 0 0 1.064.81 2.118.81 1.785 0 3.23-1.301 3.23-2.905zM46.807 47.8H27.194V26.2h19.613z" filter="url(#r0kcc)" mask="url(&quot;#r0kcd&quot;)"/><path fill="#bb9c66" d="M52.999 50.546c0 1.604-1.445 2.904-3.23 2.904-1.054 0-2.118-.809-2.118-.809-.252-.192-.535-.727-.844-.727h-2.065c-.31 0-1.282.538-1.534.734 0 0-1.478 1.158-2.83 1.158h-.258c-.268-.037-.692.1-.938.3 0 0-1.109.893-2.212.893-1.147 0-2.286-.974-2.286-.974-.243-.205-.69-.325-.993-.262 0 0-.21.043-.616.043-1.352 0-2.83-1.158-2.83-1.158-.25-.196-.678-.734-.987-.734h-2.064c-.31 0-.592.535-.847.727 0 0-1.062.81-2.116.81-1.784 0-3.23-1.301-3.23-2.905 0-1.187 1.467-2.306 1.467-2.306.252-.196.597-.106.597-.44V27.23c0-.335-.345-1.062-.597-1.253 0 0-1.467-1.118-1.467-2.305 0-1.604 1.446-2.905 3.23-2.905.942 0 1.897.628 1.897.628.263.174.759.692 1.066.692h2.064c.31 0 1.058-.518 1.324-.692 0 0 1.316-.86 2.493-.86h.28c.29.042.714-.113.944-.337 0 0 1.207-1.196 2.471-1.196 1.26 0 2.466 1.186 2.466 1.186.228.226.63.38.895.346h.247c1.18 0 2.496.86 2.496.86.266.175.526.693.836.693h3.096c.31 0 .803-.518 1.066-.692 0 0 .955-.628 1.897-.628 1.785 0 3.23 1.3 3.23 2.905 0 1.187-1.467 2.305-1.467 2.305-.252.19-.596.918-.596 1.253v19.543c0 .333.344 1.274.596 1.468 0 0 1.467 1.12 1.467 2.306zM46.807 26.2H27.194v21.6h19.613z"/><path fill="url(#r0kce)" d="M52.999 50.546c0 1.604-1.445 2.904-3.23 2.904-1.054 0-2.118-.809-2.118-.809-.252-.192-.535-.727-.844-.727h-2.065c-.31 0-1.282.538-1.534.734 0 0-1.478 1.158-2.83 1.158h-.258c-.268-.037-.692.1-.938.3 0 0-1.109.893-2.212.893-1.147 0-2.286-.974-2.286-.974-.243-.205-.69-.325-.993-.262 0 0-.21.043-.616.043-1.352 0-2.83-1.158-2.83-1.158-.25-.196-.678-.734-.987-.734h-2.064c-.31 0-.592.535-.847.727 0 0-1.062.81-2.116.81-1.784 0-3.23-1.301-3.23-2.905 0-1.187 1.467-2.306 1.467-2.306.252-.196.597-.106.597-.44V27.23c0-.335-.345-1.062-.597-1.253 0 0-1.467-1.118-1.467-2.305 0-1.604 1.446-2.905 3.23-2.905.942 0 1.897.628 1.897.628.263.174.759.692 1.066.692h2.064c.31 0 1.058-.518 1.324-.692 0 0 1.316-.86 2.493-.86h.28c.29.042.714-.113.944-.337 0 0 1.207-1.196 2.471-1.196 1.26 0 2.466 1.186 2.466 1.186.228.226.63.38.895.346h.247c1.18 0 2.496.86 2.496.86.266.175.526.693.836.693h3.096c.31 0 .803-.518 1.066-.692 0 0 .955-.628 1.897-.628 1.785 0 3.23 1.3 3.23 2.905 0 1.187-1.467 2.305-1.467 2.305-.252.19-.596.918-.596 1.253v19.543c0 .333.344 1.274.596 1.468 0 0 1.467 1.12 1.467 2.306zM46.807 26.2H27.194v21.6h19.613z"/><path fill="#fff" fill-opacity=".24" d="M8 68V6h58v62zm44.999-17.454c0-1.187-1.467-2.306-1.467-2.306-.252-.194-.596-1.135-.596-1.468V27.229c0-.335.344-1.062.596-1.253 0 0 1.467-1.118 1.467-2.305 0-1.604-1.445-2.905-3.23-2.905-.942 0-1.897.628-1.897.628-.263.174-.756.692-1.066.692H43.71c-.31 0-.57-.518-.836-.692 0 0-1.317-.86-2.496-.86h-.247c-.265.033-.667-.12-.895-.346 0 0-1.207-1.187-2.466-1.187-1.264 0-2.471 1.196-2.471 1.196-.23.224-.655.379-.945.337h-.279c-1.177 0-2.493.86-2.493.86-.266.174-1.015.692-1.324.692h-2.064c-.307 0-.803-.518-1.066-.692 0 0-.955-.628-1.897-.628-1.784 0-3.23 1.3-3.23 2.905 0 1.187 1.467 2.305 1.467 2.305.252.19.597.918.597 1.253V47.8c0 .334-.345.244-.597.44 0 0-1.467 1.12-1.467 2.306 0 1.604 1.446 2.904 3.23 2.904 1.054 0 2.116-.809 2.116-.809.255-.192.537-.727.847-.727h2.064c.31 0 .738.538.987.734 0 0 1.478 1.158 2.83 1.158.405 0 .616-.043.616-.043.304-.063.75.057.993.262 0 0 1.139.974 2.286.974 1.103 0 2.212-.893 2.212-.893.246-.2.67-.337.938-.3h.258c1.352 0 2.83-1.158 2.83-1.158.252-.196 1.225-.734 1.534-.734h2.065c.309 0 .592.535.844.727 0 0 1.064.81 2.118.81 1.785 0 3.23-1.301 3.23-2.905zM46.807 47.8H27.194V26.2h19.613z" filter="url(#r0kcc)" mask="url(&quot;#r0kcd&quot;)"/><path fill="#fff1d8" fill-opacity=".44" d="M21 56V18h32v38zm31.999-4.454c0-1.187-1.467-2.306-1.467-2.306-.252-.194-.596-1.135-.596-1.468V28.229c0-.335.344-1.062.596-1.253 0 0 1.467-1.118 1.467-2.305 0-1.604-1.445-2.905-3.23-2.905-.942 0-1.897.628-1.897.628-.263.174-.756.692-1.066.692H43.71c-.31 0-.57-.518-.836-.692 0 0-1.317-.86-2.496-.86h-.247c-.265.033-.667-.12-.895-.346 0 0-1.207-1.187-2.466-1.187-1.264 0-2.471 1.196-2.471 1.196-.23.224-.655.379-.945.337h-.279c-1.177 0-2.493.86-2.493.86-.266.174-1.015.692-1.324.692h-2.064c-.307 0-.803-.518-1.066-.692 0 0-.955-.628-1.897-.628-1.784 0-3.23 1.3-3.23 2.905 0 1.187 1.467 2.305 1.467 2.305.252.19.597.918.597 1.253V48.8c0 .334-.345.244-.597.44 0 0-1.467 1.12-1.467 2.306 0 1.604 1.446 2.904 3.23 2.904 1.054 0 2.116-.809 2.116-.809.255-.192.537-.727.847-.727h2.064c.31 0 .738.538.987.734 0 0 1.478 1.158 2.83 1.158.405 0 .616-.043.616-.043.304-.063.75.057.993.262 0 0 1.139.974 2.286.974 1.103 0 2.212-.893 2.212-.893.246-.2.67-.337.938-.3h.258c1.352 0 2.83-1.158 2.83-1.158.252-.196 1.225-.734 1.534-.734h2.065c.309 0 .592.535.844.727 0 0 1.064.81 2.118.81 1.785 0 3.23-1.301 3.23-2.905zM46.807 48.8H27.194V27.2h19.613z" filter="url(#r0kcf)" mask="url(&quot;#r0kcg&quot;)"/></g></g></g></svg>