<svg xmlns="http://www.w3.org/2000/svg" width="75" height="74" viewBox="0 0 75 74"><defs><clipPath id="nulra"><path fill="#fff" d="M37.5 0C58.21 0 75 16.375 75 36.574c0 20.2-16.79 36.574-37.5 36.574S0 56.774 0 36.574C0 16.375 16.79 0 37.5 0z"/></clipPath><linearGradient id="nulre" x1="37" x2="37" y1="52" y2="21" gradientUnits="userSpaceOnUse"><stop offset="0" stop-opacity=".96"/><stop offset=".5" stop-color="#d0d0d0" stop-opacity=".96"/><stop offset="1" stop-color="#9e9e9e" stop-opacity=".96"/></linearGradient><filter id="nulrc" width="200%" height="200%" x="-50%" y="-50%"><feGaussianBlur in="SourceGraphic" result="FeGaussianBlur1105Out" stdDeviation="6.5 6.5"/></filter><mask id="nulrd"><path fill="#fff" d="M55 46.072H52.71v2.878c0 1.683-1.402 3.05-3.132 3.05-1.73 0-3.133-1.367-3.133-3.05v-2.878H27.445v2.878c0 1.686-1.402 3.05-3.132 3.05-1.73 0-3.133-1.364-3.133-3.05v-2.878H19V36.027c0-1.236 1.03-2.238 2.298-2.238h.725l2.997-9.281.033-.075c.458-1.05 1.239-1.852 2.143-2.446.911-.584 1.971-.978 3.144-.987h12.972c1.174.009 2.232.403 3.143.987.907.594 1.687 1.396 2.146 2.446l.03.073 3.001 9.283h1.07c1.269 0 2.298 1.002 2.298 2.238zm-8.016-6.442c0 1.396 1.16 2.528 2.595 2.528 1.435 0 2.598-1.132 2.598-2.528 0-1.397-1.163-2.528-2.598-2.528-1.435 0-2.595 1.131-2.595 2.528zm-21.235-5.84h22.154l-2.61-8.085c-.123-.248-.423-.594-.81-.836-.41-.275-.896-.413-1.171-.405H30.34c-.274-.008-.759.13-1.171.405-.384.242-.685.588-.807.836zm1.158 5.84c0-1.397-1.161-2.528-2.594-2.528-1.435 0-2.598 1.131-2.598 2.528 0 1.396 1.163 2.528 2.598 2.528 1.433 0 2.594-1.132 2.594-2.528z"/></mask><filter id="nulrf" width="200%" height="200%" x="-50%" y="-50%"><feGaussianBlur in="SourceGraphic" result="FeGaussianBlur1112Out" stdDeviation="0 0"/></filter><mask id="nulrg"><path fill="#fff" d="M55 46.072H52.71v2.878c0 1.683-1.402 3.05-3.132 3.05-1.73 0-3.133-1.367-3.133-3.05v-2.878H27.445v2.878c0 1.686-1.402 3.05-3.132 3.05-1.73 0-3.133-1.364-3.133-3.05v-2.878H19V36.027c0-1.236 1.03-2.238 2.298-2.238h.725l2.997-9.281.033-.075c.458-1.05 1.239-1.852 2.143-2.446.911-.584 1.971-.978 3.144-.987h12.972c1.174.009 2.232.403 3.143.987.907.594 1.687 1.396 2.146 2.446l.03.073 3.001 9.283h1.07c1.269 0 2.298 1.002 2.298 2.238zm-8.016-6.442c0 1.396 1.16 2.528 2.595 2.528 1.435 0 2.598-1.132 2.598-2.528 0-1.397-1.163-2.528-2.598-2.528-1.435 0-2.595 1.131-2.595 2.528zm-21.235-5.84h22.154l-2.61-8.085c-.123-.248-.423-.594-.81-.836-.41-.275-.896-.413-1.171-.405H30.34c-.274-.008-.759.13-1.171.405-.384.242-.685.588-.807.836zm1.158 5.84c0-1.397-1.161-2.528-2.594-2.528-1.435 0-2.598 1.131-2.598 2.528 0 1.396 1.163 2.528 2.598 2.528 1.433 0 2.594-1.132 2.594-2.528z"/></mask><clipPath id="nulrb"><path d="M37.5 0C58.21 0 75 16.375 75 36.574c0 20.2-16.79 36.574-37.5 36.574S0 56.774 0 36.574C0 16.375 16.79 0 37.5 0z"/></clipPath></defs><g><g><g><path fill="#1c242a" d="M37.5 0C58.21 0 75 16.375 75 36.574c0 20.2-16.79 36.574-37.5 36.574S0 56.774 0 36.574C0 16.375 16.79 0 37.5 0z"/><path fill="none" stroke="#000" stroke-linecap="round" stroke-linejoin="round" stroke-miterlimit="20" stroke-width="6" d="M37.5 0C58.21 0 75 16.375 75 36.574c0 20.2-16.79 36.574-37.5 36.574S0 56.774 0 36.574C0 16.375 16.79 0 37.5 0z" clip-path="url(&quot;#nulra&quot;)"/></g><g clip-path="url(#nulrb)"><path fill="#fff" fill-opacity=".24" d="M6 65V8h62v57zm49-28.973c0-1.236-1.03-2.238-2.298-2.238h-1.07l-3-9.283-.031-.073c-.459-1.05-1.24-1.852-2.146-2.446-.91-.584-1.97-.978-3.143-.987H30.34c-1.173.009-2.233.403-3.144.987-.904.594-1.685 1.396-2.143 2.446l-.033.075-2.997 9.281h-.725c-1.269 0-2.298 1.002-2.298 2.238v10.045h2.18v2.878c0 1.686 1.402 3.05 3.133 3.05 1.73 0 3.132-1.364 3.132-3.05v-2.878h19v2.878c0 1.683 1.403 3.05 3.134 3.05 1.73 0 3.132-1.367 3.132-3.05v-2.878H55zm-5.421 1.075c1.435 0 2.598 1.131 2.598 2.528 0 1.396-1.163 2.528-2.598 2.528-1.435 0-2.595-1.132-2.595-2.528 0-1.397 1.16-2.528 2.595-2.528zM28.362 25.705c.122-.248.423-.594.807-.836.412-.275.897-.413 1.17-.405h12.973c.275-.008.762.13 1.172.405.386.242.686.588.808.836l2.61 8.084H25.75zm-4.05 16.453c-1.434 0-2.597-1.132-2.597-2.528 0-1.397 1.163-2.528 2.598-2.528 1.433 0 2.594 1.131 2.594 2.528 0 1.396-1.161 2.528-2.594 2.528z" filter="url(#nulrc)" mask="url(&quot;#nulrd&quot;)"/><path fill="#bb9c66" d="M55 46.072H52.71v2.878c0 1.683-1.402 3.05-3.132 3.05-1.73 0-3.133-1.367-3.133-3.05v-2.878H27.445v2.878c0 1.686-1.402 3.05-3.132 3.05-1.73 0-3.133-1.364-3.133-3.05v-2.878H19V36.027c0-1.236 1.03-2.238 2.298-2.238h.725l2.997-9.281.033-.075c.458-1.05 1.239-1.852 2.143-2.446.911-.584 1.971-.978 3.144-.987h12.972c1.174.009 2.232.403 3.143.987.907.594 1.687 1.396 2.146 2.446l.03.073 3.001 9.283h1.07c1.269 0 2.298 1.002 2.298 2.238zm-8.016-6.442c0 1.396 1.16 2.528 2.595 2.528 1.435 0 2.598-1.132 2.598-2.528 0-1.397-1.163-2.528-2.598-2.528-1.435 0-2.595 1.131-2.595 2.528zm-21.235-5.84h22.154l-2.61-8.085c-.123-.248-.423-.594-.81-.836-.41-.275-.896-.413-1.171-.405H30.34c-.274-.008-.759.13-1.171.405-.384.242-.685.588-.807.836zm1.158 5.84c0-1.397-1.161-2.528-2.594-2.528-1.435 0-2.598 1.131-2.598 2.528 0 1.396 1.163 2.528 2.598 2.528 1.433 0 2.594-1.132 2.594-2.528z"/><path fill="url(#nulre)" d="M55 46.072H52.71v2.878c0 1.683-1.402 3.05-3.132 3.05-1.73 0-3.133-1.367-3.133-3.05v-2.878H27.445v2.878c0 1.686-1.402 3.05-3.132 3.05-1.73 0-3.133-1.364-3.133-3.05v-2.878H19V36.027c0-1.236 1.03-2.238 2.298-2.238h.725l2.997-9.281.033-.075c.458-1.05 1.239-1.852 2.143-2.446.911-.584 1.971-.978 3.144-.987h12.972c1.174.009 2.232.403 3.143.987.907.594 1.687 1.396 2.146 2.446l.03.073 3.001 9.283h1.07c1.269 0 2.298 1.002 2.298 2.238zm-8.016-6.442c0 1.396 1.16 2.528 2.595 2.528 1.435 0 2.598-1.132 2.598-2.528 0-1.397-1.163-2.528-2.598-2.528-1.435 0-2.595 1.131-2.595 2.528zm-21.235-5.84h22.154l-2.61-8.085c-.123-.248-.423-.594-.81-.836-.41-.275-.896-.413-1.171-.405H30.34c-.274-.008-.759.13-1.171.405-.384.242-.685.588-.807.836zm1.158 5.84c0-1.397-1.161-2.528-2.594-2.528-1.435 0-2.598 1.131-2.598 2.528 0 1.396 1.163 2.528 2.598 2.528 1.433 0 2.594-1.132 2.594-2.528z"/><path fill="#fff" fill-opacity=".24" d="M6 65V8h62v57zm49-28.973c0-1.236-1.03-2.238-2.298-2.238h-1.07l-3-9.283-.031-.073c-.459-1.05-1.24-1.852-2.146-2.446-.91-.584-1.97-.978-3.143-.987H30.34c-1.173.009-2.233.403-3.144.987-.904.594-1.685 1.396-2.143 2.446l-.033.075-2.997 9.281h-.725c-1.269 0-2.298 1.002-2.298 2.238v10.045h2.18v2.878c0 1.686 1.402 3.05 3.133 3.05 1.73 0 3.132-1.364 3.132-3.05v-2.878h19v2.878c0 1.683 1.403 3.05 3.134 3.05 1.73 0 3.132-1.367 3.132-3.05v-2.878H55zm-5.421 1.075c1.435 0 2.598 1.131 2.598 2.528 0 1.396-1.163 2.528-2.598 2.528-1.435 0-2.595-1.132-2.595-2.528 0-1.397 1.16-2.528 2.595-2.528zM28.362 25.705c.122-.248.423-.594.807-.836.412-.275.897-.413 1.17-.405h12.973c.275-.008.762.13 1.172.405.386.242.686.588.808.836l2.61 8.084H25.75zm-4.05 16.453c-1.434 0-2.597-1.132-2.597-2.528 0-1.397 1.163-2.528 2.598-2.528 1.433 0 2.594 1.131 2.594 2.528 0 1.396-1.161 2.528-2.594 2.528z" filter="url(#nulrc)" mask="url(&quot;#nulrd&quot;)"/><path fill="#fff1d8" fill-opacity=".44" d="M19 53V20h36v33h-5.356c1.7-.034 3.067-1.388 3.067-3.05v-2.878H55V37.027c0-1.236-1.03-2.238-2.298-2.238h-1.07l-3-9.283-.031-.073c-.459-1.05-1.24-1.852-2.146-2.446-.91-.584-1.97-.978-3.143-.987H30.34c-1.173.009-2.233.403-3.144.987-.904.594-1.685 1.396-2.143 2.446l-.033.075-2.997 9.281h-.725c-1.269 0-2.298 1.002-2.298 2.238v10.045h2.18v2.878c0 1.665 1.367 3.016 3.067 3.05zm5.313 0h.065-.13.065zm3.132-3.05v-2.878h19v2.878c0 1.662 1.368 3.016 3.068 3.05H24.378c1.7-.034 3.067-1.385 3.067-3.05zM49.579 53h.065-.13.065zm0-14.898c1.435 0 2.598 1.131 2.598 2.528 0 1.396-1.163 2.528-2.598 2.528-1.435 0-2.595-1.132-2.595-2.528 0-1.397 1.16-2.528 2.595-2.528zM28.362 26.705c.122-.248.423-.594.807-.836.412-.275.897-.413 1.17-.405h12.973c.275-.008.762.13 1.172.405.386.242.686.588.808.836l2.61 8.084H25.75zm-4.05 16.453c-1.434 0-2.597-1.132-2.597-2.528 0-1.397 1.163-2.528 2.598-2.528 1.433 0 2.594 1.131 2.594 2.528 0 1.396-1.161 2.528-2.594 2.528z" filter="url(#nulrf)" mask="url(&quot;#nulrg&quot;)"/></g></g></g></svg>