<svg xmlns="http://www.w3.org/2000/svg" width="78.469" height="78.21" viewBox="0 0 78.469 78.21">
  <defs>
    <style>
      .cls-1 {
        fill: none;
        stroke: #bb9c66;
        stroke-width: 1px;
        fill-rule: evenodd;
      }
    </style>
  </defs>
  <path class="cls-1" d="M529.236,2586.08l-0.517-.51,30.7-30.61,0.517,0.52Zm18.6,17.09-0.529-.51-17.6,18.35,0.53,0.51Zm48.4-10.28-0.518-.52-30.073,30.1,0.519,0.52Zm-18.76-19.19-0.5-.53,16.813-16.03,0.5,0.53Zm18.245,12.52,0.515-.52-30.587-30.49-0.515.52Zm-18.526,17.02,0.528-.51,17.537,18.29-0.527.5ZM528.97,2593l0.517-.51,29.961,29.99-0.517.51Zm18.691-19.12,0.5-.52-16.75-15.97-0.5.52Zm14.942-3.36a18.215,18.215,0,1,1-18.275,18.22A18.248,18.248,0,0,1,562.6,2570.52Zm0-20.4a2.185,2.185,0,1,1-2.193,2.19A2.191,2.191,0,0,1,562.6,2550.12Zm0,72.86a2.19,2.19,0,1,1-2.193,2.19A2.191,2.191,0,0,1,562.6,2622.98Zm36.549-36.43a2.185,2.185,0,1,1-2.193,2.19A2.191,2.191,0,0,1,599.152,2586.55Zm-73.1,0a2.185,2.185,0,1,1-2.193,2.19A2.191,2.191,0,0,1,526.054,2586.55Z" transform="translate(-523.375 -2549.63)"/>
</svg>
