<svg xmlns="http://www.w3.org/2000/svg" width="75" height="74" viewBox="0 0 75 74"><defs><clipPath id="rm8ma"><path fill="#fff" d="M37.5 0C58.21 0 75 16.375 75 36.574c0 20.2-16.79 36.575-37.5 36.575S0 56.773 0 36.574 16.79 0 37.5 0z"/></clipPath><linearGradient id="rm8me" x1="37" x2="37" y1="51" y2="22" gradientUnits="userSpaceOnUse"><stop offset="0" stop-opacity=".96"/><stop offset=".5" stop-color="#d0d0d0" stop-opacity=".96"/><stop offset="1" stop-color="#9e9e9e" stop-opacity=".96"/></linearGradient><filter id="rm8mc" width="200%" height="200%" x="-50%" y="-50%"><feGaussianBlur in="SourceGraphic" result="FeGaussianBlur1393Out" stdDeviation="6.5 6.5"/></filter><mask id="rm8md"><path fill="#fff" d="M38.062 47.527V37.79C42.524 37.244 46 33.313 46 28.56c0-1.321-.296-3.978-1.094-5.488L44.343 22H29.657l-.566 1.071c-.795 1.512-1.09 4.167-1.09 5.487 0 4.804 3.54 8.768 8.071 9.249v9.72c-3.641.115-6.45.846-6.45 1.73 0 .963 3.334 1.743 7.446 1.743 4.11 0 7.443-.78 7.443-1.744 0-.883-2.81-1.614-6.45-1.729z"/></mask><filter id="rm8mf" width="200%" height="200%" x="-50%" y="-50%"><feGaussianBlur in="SourceGraphic" result="FeGaussianBlur1400Out" stdDeviation="0 0"/></filter><mask id="rm8mg"><path fill="#fff" d="M38.062 47.527V37.79C42.524 37.244 46 33.313 46 28.56c0-1.321-.296-3.978-1.094-5.488L44.343 22H29.657l-.566 1.071c-.795 1.512-1.09 4.167-1.09 5.487 0 4.804 3.54 8.768 8.071 9.249v9.72c-3.641.115-6.45.846-6.45 1.73 0 .963 3.334 1.743 7.446 1.743 4.11 0 7.443-.78 7.443-1.744 0-.883-2.81-1.614-6.45-1.729z"/></mask><clipPath id="rm8mb"><path d="M37.5 0C58.21 0 75 16.375 75 36.574c0 20.2-16.79 36.575-37.5 36.575S0 56.773 0 36.574 16.79 0 37.5 0z"/></clipPath></defs><g><g><g><path fill="#1c242a" d="M37.5 0C58.21 0 75 16.375 75 36.574c0 20.2-16.79 36.575-37.5 36.575S0 56.773 0 36.574 16.79 0 37.5 0z"/><path fill="none" stroke="#000" stroke-linecap="round" stroke-linejoin="round" stroke-miterlimit="20" stroke-width="6" d="M37.5 0C58.21 0 75 16.375 75 36.574c0 20.2-16.79 36.575-37.5 36.575S0 56.773 0 36.574 16.79 0 37.5 0z" clip-path="url(&quot;#rm8ma&quot;)"/></g><g clip-path="url(#rm8mb)"><path fill="#fff" fill-opacity=".24" d="M15 64V9h44v55zm23.062-16.473V37.79C42.524 37.244 46 33.313 46 28.56c0-1.321-.296-3.978-1.094-5.488L44.343 22H29.657l-.566 1.071c-.795 1.512-1.09 4.167-1.09 5.487 0 4.804 3.54 8.768 8.071 9.249v9.72c-3.641.115-6.45.846-6.45 1.73 0 .963 3.334 1.743 7.446 1.743 4.11 0 7.443-.78 7.443-1.744 0-.883-2.81-1.614-6.45-1.729z" filter="url(#rm8mc)" mask="url(&quot;#rm8md&quot;)"/><path fill="#bb9c66" d="M38.062 47.527V37.79C42.524 37.244 46 33.313 46 28.56c0-1.321-.296-3.978-1.094-5.488L44.343 22H29.657l-.566 1.071c-.795 1.512-1.09 4.167-1.09 5.487 0 4.804 3.54 8.768 8.071 9.249v9.72c-3.641.115-6.45.846-6.45 1.73 0 .963 3.334 1.743 7.446 1.743 4.11 0 7.443-.78 7.443-1.744 0-.883-2.81-1.614-6.45-1.729z"/><path fill="url(#rm8me)" d="M38.062 47.527V37.79C42.524 37.244 46 33.313 46 28.56c0-1.321-.296-3.978-1.094-5.488L44.343 22H29.657l-.566 1.071c-.795 1.512-1.09 4.167-1.09 5.487 0 4.804 3.54 8.768 8.071 9.249v9.72c-3.641.115-6.45.846-6.45 1.73 0 .963 3.334 1.743 7.446 1.743 4.11 0 7.443-.78 7.443-1.744 0-.883-2.81-1.614-6.45-1.729z"/><path fill="#fff" fill-opacity=".24" d="M15 64V9h44v55zm23.062-16.473V37.79C42.524 37.244 46 33.313 46 28.56c0-1.321-.296-3.978-1.094-5.488L44.343 22H29.657l-.566 1.071c-.795 1.512-1.09 4.167-1.09 5.487 0 4.804 3.54 8.768 8.071 9.249v9.72c-3.641.115-6.45.846-6.45 1.73 0 .963 3.334 1.743 7.446 1.743 4.11 0 7.443-.78 7.443-1.744 0-.883-2.81-1.614-6.45-1.729z" filter="url(#rm8mc)" mask="url(&quot;#rm8md&quot;)"/><path fill="#fff1d8" fill-opacity=".44" d="M28 52V21h18v31h-8.79c4.045-.018 7.3-.791 7.3-1.744 0-.883-2.809-1.614-6.448-1.729V38.79C42.524 38.244 46 34.313 46 29.56c0-1.321-.296-3.978-1.094-5.488L44.343 23H29.657l-.566 1.071c-.795 1.512-1.09 4.167-1.09 5.487 0 4.804 3.54 8.768 8.071 9.249v9.72c-3.641.115-6.45.846-6.45 1.73 0 .952 3.257 1.725 7.304 1.743zm9.068 0h.142-.284.142z" filter="url(#rm8mf)" mask="url(&quot;#rm8mg&quot;)"/></g></g></g></svg>