<svg xmlns="http://www.w3.org/2000/svg" width="75" height="74" viewBox="0 0 75 74"><defs><clipPath id="teu2a"><path fill="#fff" d="M37.5 0C58.21 0 75 16.375 75 36.574c0 20.2-16.79 36.574-37.5 36.574S0 56.773 0 36.574C0 16.375 16.79 0 37.5 0z"/></clipPath><linearGradient id="teu2e" x1="37.1" x2="36.82" y1="51.88" y2="20.4" gradientUnits="userSpaceOnUse"><stop offset="0" stop-opacity=".96"/><stop offset=".5" stop-color="#d0d0d0" stop-opacity=".96"/><stop offset="1" stop-color="#9e9e9e" stop-opacity=".96"/></linearGradient><filter id="teu2c" width="200%" height="200%" x="-50%" y="-50%"><feGaussianBlur in="SourceGraphic" result="FeGaussianBlur1249Out" stdDeviation="6.5 6.5"/></filter><mask id="teu2d"><path fill="#fff" d="M42.815 50.419c.47.418 1.055.68 1.872.682v.777H29.229v-.777c.817-.003 1.4-.264 1.871-.682.468-.418.813-1.012 1.056-1.667.243-.65.381-1.353.459-1.976H41.3c.039.31.091.638.166.971.223 1.014.645 2.047 1.348 2.672zM55.097 21.43v22.482c0 .57-.462 1.033-1.032 1.033H19.85c-.57 0-1.032-.463-1.032-1.033V21.43c0-.57.462-1.032 1.032-1.032h34.214c.57 0 1.032.462 1.032 1.032zm-2.505 1.473H21.324V42.44h31.268z"/></mask><filter id="teu2f" width="200%" height="200%" x="-50%" y="-50%"><feGaussianBlur in="SourceGraphic" result="FeGaussianBlur1256Out" stdDeviation="0 0"/></filter><mask id="teu2g"><path fill="#fff" d="M42.815 50.419c.47.418 1.055.68 1.872.682v.777H29.229v-.777c.817-.003 1.4-.264 1.871-.682.468-.418.813-1.012 1.056-1.667.243-.65.381-1.353.459-1.976H41.3c.039.31.091.638.166.971.223 1.014.645 2.047 1.348 2.672zM55.097 21.43v22.482c0 .57-.462 1.033-1.032 1.033H19.85c-.57 0-1.032-.463-1.032-1.033V21.43c0-.57.462-1.032 1.032-1.032h34.214c.57 0 1.032.462 1.032 1.032zm-2.505 1.473H21.324V42.44h31.268z"/></mask><clipPath id="teu2b"><path d="M37.5 0C58.21 0 75 16.375 75 36.574c0 20.2-16.79 36.574-37.5 36.574S0 56.773 0 36.574C0 16.375 16.79 0 37.5 0z"/></clipPath></defs><g><g><g><path fill="#1c242a" d="M37.5 0C58.21 0 75 16.375 75 36.574c0 20.2-16.79 36.574-37.5 36.574S0 56.773 0 36.574C0 16.375 16.79 0 37.5 0z"/><path fill="none" stroke="#000" stroke-linecap="round" stroke-linejoin="round" stroke-miterlimit="20" stroke-width="6" d="M37.5 0C58.21 0 75 16.375 75 36.574c0 20.2-16.79 36.574-37.5 36.574S0 56.773 0 36.574C0 16.375 16.79 0 37.5 0z" clip-path="url(&quot;#teu2a&quot;)"/></g><g clip-path="url(#teu2b)"><path fill="#fff" fill-opacity=".24" d="M5 65V7h64v58zm37.815-14.581c-.703-.625-1.125-1.658-1.348-2.672a10.31 10.31 0 0 1-.166-.97h-8.686c-.078.622-.216 1.326-.46 1.975-.242.655-.587 1.249-1.055 1.667-.47.418-1.054.68-1.871.682v.777h15.458v-.777c-.817-.003-1.401-.264-1.872-.682zm11.25-30.021H19.85c-.57 0-1.032.462-1.032 1.032v22.482c0 .57.462 1.033 1.032 1.033h34.214c.57 0 1.032-.463 1.032-1.033V21.43c0-.57-.462-1.032-1.032-1.032zM52.592 42.44H21.324V22.903h31.268z" filter="url(#teu2c)" mask="url(&quot;#teu2d&quot;)"/><path fill="#bb9c66" d="M42.815 50.419c.47.418 1.055.68 1.872.682v.777H29.229v-.777c.817-.003 1.4-.264 1.871-.682.468-.418.813-1.012 1.056-1.667.243-.65.381-1.353.459-1.976H41.3c.039.31.091.638.166.971.223 1.014.645 2.047 1.348 2.672zM55.097 21.43v22.482c0 .57-.462 1.033-1.032 1.033H19.85c-.57 0-1.032-.463-1.032-1.033V21.43c0-.57.462-1.032 1.032-1.032h34.214c.57 0 1.032.462 1.032 1.032zm-2.505 1.473H21.324V42.44h31.268z"/><path fill="url(#teu2e)" d="M42.815 50.419c.47.418 1.055.68 1.872.682v.777H29.229v-.777c.817-.003 1.4-.264 1.871-.682.468-.418.813-1.012 1.056-1.667.243-.65.381-1.353.459-1.976H41.3c.039.31.091.638.166.971.223 1.014.645 2.047 1.348 2.672zM55.097 21.43v22.482c0 .57-.462 1.033-1.032 1.033H19.85c-.57 0-1.032-.463-1.032-1.033V21.43c0-.57.462-1.032 1.032-1.032h34.214c.57 0 1.032.462 1.032 1.032zm-2.505 1.473H21.324V42.44h31.268z"/><path fill="#fff" fill-opacity=".24" d="M5 65V7h64v58zm37.815-14.581c-.703-.625-1.125-1.658-1.348-2.672a10.31 10.31 0 0 1-.166-.97h-8.686c-.078.622-.216 1.326-.46 1.975-.242.655-.587 1.249-1.055 1.667-.47.418-1.054.68-1.871.682v.777h15.458v-.777c-.817-.003-1.401-.264-1.872-.682zm11.25-30.021H19.85c-.57 0-1.032.462-1.032 1.032v22.482c0 .57.462 1.033 1.032 1.033h34.214c.57 0 1.032-.463 1.032-1.033V21.43c0-.57-.462-1.032-1.032-1.032zM52.592 42.44H21.324V22.903h31.268z" filter="url(#teu2c)" mask="url(&quot;#teu2d&quot;)"/><path fill="#fff1d8" fill-opacity=".44" d="M18 53V19h38v34zm24.815-1.581c-.703-.625-1.125-1.658-1.348-2.672a10.31 10.31 0 0 1-.166-.97h-8.686c-.078.622-.216 1.326-.46 1.975-.242.655-.587 1.249-1.055 1.667-.47.418-1.054.68-1.871.682v.777h15.458v-.777c-.817-.003-1.401-.264-1.872-.682zm11.25-30.021H19.85c-.57 0-1.032.462-1.032 1.032v22.482c0 .57.462 1.033 1.032 1.033h34.214c.57 0 1.032-.463 1.032-1.033V22.43c0-.57-.462-1.032-1.032-1.032zM52.592 43.44H21.324V23.903h31.268z" filter="url(#teu2f)" mask="url(&quot;#teu2g&quot;)"/></g></g></g></svg>