<svg xmlns="http://www.w3.org/2000/svg" width="13" height="21" viewBox="0 0 13 21"><defs><clipPath id="j4yva"><path fill="#fff" d="M0 0h13v4H0zm0 5h13v2H0zm0 3h6v1H0zm7 0h6v7H7zm-7 2h6v1H0zm0 2h6v1H0zm0 2h6v1H0zm0 2h13v1H0zm0 2h6v1H0zm7 0h6v1H7zm-7 2h6v1H0zm7 0h6v1H7z"/></clipPath></defs><g><g><path fill="none" stroke="#bb9c66" stroke-miterlimit="20" stroke-width="2" d="M0 0h13v4H0zm0 5h13v2H0zm0 3h6v1H0zm7 0h6v7H7zm-7 2h6v1H0zm0 2h6v1H0zm0 2h6v1H0zm0 2h13v1H0zm0 2h6v1H0zm7 0h6v1H7zm-7 2h6v1H0zm7 0h6v1H7z" clip-path="url(&quot;#j4yva&quot;)"/></g></g></svg>