<svg xmlns="http://www.w3.org/2000/svg" width="75" height="74" viewBox="0 0 75 74"><defs><clipPath id="mxpua"><path fill="#fff" d="M37.5 0C58.21 0 75 16.375 75 36.574c0 20.2-16.79 36.574-37.5 36.574S0 56.774 0 36.574C0 16.375 16.79 0 37.5 0z"/></clipPath><linearGradient id="mxpue" x1="36.99" x2="37" y1="57" y2="21.01" gradientUnits="userSpaceOnUse"><stop offset="0" stop-opacity=".96"/><stop offset=".5" stop-color="#d0d0d0" stop-opacity=".96"/><stop offset="1" stop-color="#9e9e9e" stop-opacity=".96"/></linearGradient><filter id="mxpuc" width="200%" height="200%" x="-50%" y="-50%"><feGaussianBlur in="SourceGraphic" result="FeGaussianBlur1057Out" stdDeviation="6.5 6.5"/></filter><mask id="mxpud"><path fill="#fff" d="M55.992 30.799L36.994 57.002 17.996 30.799l6.877-9.793h24.244zm-15.934-1.504l-3.06-4.133-3.061 4.133zm-6.68 2.98l3.62 15.288 3.618-15.289zm9.325-4.368l2.904-3.922h-5.808zm-8.508-3.918h-5.808l2.906 3.918zm-8.622 1.154l-2.917 4.152h5.991zm-2.862 7.131L34.07 47.941 30.36 32.274zm17.218 15.654l11.348-15.654h-7.642zm11.404-18.633l-2.913-4.15-3.073 4.15z"/></mask><filter id="mxpuf" width="200%" height="200%" x="-50%" y="-50%"><feGaussianBlur in="SourceGraphic" result="FeGaussianBlur1064Out" stdDeviation="0 0"/></filter><mask id="mxpug"><path fill="#fff" d="M55.992 30.799L36.994 57.002 17.996 30.799l6.877-9.793h24.244zm-15.934-1.504l-3.06-4.133-3.061 4.133zm-6.68 2.98l3.62 15.288 3.618-15.289zm9.325-4.368l2.904-3.922h-5.808zm-8.508-3.918h-5.808l2.906 3.918zm-8.622 1.154l-2.917 4.152h5.991zm-2.862 7.131L34.07 47.941 30.36 32.274zm17.218 15.654l11.348-15.654h-7.642zm11.404-18.633l-2.913-4.15-3.073 4.15z"/></mask><clipPath id="mxpub"><path d="M37.5 0C58.21 0 75 16.375 75 36.574c0 20.2-16.79 36.574-37.5 36.574S0 56.774 0 36.574C0 16.375 16.79 0 37.5 0z"/></clipPath></defs><g><g><g><path fill="#1c242a" d="M37.5 0C58.21 0 75 16.375 75 36.574c0 20.2-16.79 36.574-37.5 36.574S0 56.774 0 36.574C0 16.375 16.79 0 37.5 0z"/><path fill="none" stroke="#000" stroke-linecap="round" stroke-linejoin="round" stroke-miterlimit="20" stroke-width="6" d="M37.5 0C58.21 0 75 16.375 75 36.574c0 20.2-16.79 36.574-37.5 36.574S0 56.774 0 36.574C0 16.375 16.79 0 37.5 0z" clip-path="url(&quot;#mxpua&quot;)"/></g><g clip-path="url(#mxpub)"><path fill="#fff" fill-opacity=".24" d="M5 70V8h64v62zm44.117-48.994H24.873L17.996 30.8l18.998 26.203 18.998-26.203zm-15.18 8.289l3.06-4.133 3.06 4.133zm6.68 2.98l-3.62 15.288-3.62-15.289zm-.818-8.29h5.808l-2.904 3.922zm-8.506 3.922l-2.906-3.918h5.808zm-2.646 1.388h-5.99l2.916-4.152zm1.714 2.98L34.07 47.94 22.71 32.274zm13.274 0h7.642L39.929 47.927zm1.712-2.98l3.073-4.15 2.913 4.15z" filter="url(#mxpuc)" mask="url(&quot;#mxpud&quot;)"/><path fill="#bb9c66" d="M55.992 30.799L36.994 57.002 17.996 30.799l6.877-9.793h24.244zm-15.934-1.504l-3.06-4.133-3.061 4.133zm-6.68 2.98l3.62 15.288 3.618-15.289zm9.325-4.368l2.904-3.922h-5.808zm-8.508-3.918h-5.808l2.906 3.918zm-8.622 1.154l-2.917 4.152h5.991zm-2.862 7.131L34.07 47.941 30.36 32.274zm17.218 15.654l11.348-15.654h-7.642zm11.404-18.633l-2.913-4.15-3.073 4.15z"/><path fill="url(#mxpue)" d="M55.992 30.799L36.994 57.002 17.996 30.799l6.877-9.793h24.244zm-15.934-1.504l-3.06-4.133-3.061 4.133zm-6.68 2.98l3.62 15.288 3.618-15.289zm9.325-4.368l2.904-3.922h-5.808zm-8.508-3.918h-5.808l2.906 3.918zm-8.622 1.154l-2.917 4.152h5.991zm-2.862 7.131L34.07 47.941 30.36 32.274zm17.218 15.654l11.348-15.654h-7.642zm11.404-18.633l-2.913-4.15-3.073 4.15z"/><path fill="#fff" fill-opacity=".24" d="M5 70V8h64v62zm44.117-48.994H24.873L17.996 30.8l18.998 26.203 18.998-26.203zm-15.18 8.289l3.06-4.133 3.06 4.133zm6.68 2.98l-3.62 15.288-3.62-15.289zm-.818-8.29h5.808l-2.904 3.922zm-8.506 3.922l-2.906-3.918h5.808zm-2.646 1.388h-5.99l2.916-4.152zm1.714 2.98L34.07 47.94 22.71 32.274zm13.274 0h7.642L39.929 47.927zm1.712-2.98l3.073-4.15 2.913 4.15z" filter="url(#mxpuc)" mask="url(&quot;#mxpud&quot;)"/><path fill="#fff1d8" fill-opacity=".44" d="M18 58V31.805L36.993 58zm0-38h38v38H36.996l18.996-26.201-6.875-9.793H24.873L18 31.793zm-.004 11.799l.004.006v-.012zm18.998 26.203l.002-.002h-.003zm-3.057-27.707l3.06-4.133 3.06 4.133zm6.68 2.98l-3.62 15.288-3.62-15.289zm-.818-8.29h5.808l-2.904 3.922zm-8.506 3.922l-2.906-3.918h5.808zm-2.646 1.388h-5.99l2.916-4.152zm1.714 2.98L34.07 48.94 22.71 33.274zm13.274 0h7.642L39.929 48.927zm1.712-2.98l3.073-4.15 2.913 4.15z" filter="url(#mxpuf)" mask="url(&quot;#mxpug&quot;)"/></g></g></g></svg>