<svg xmlns="http://www.w3.org/2000/svg" width="10.09" height="13.094" viewBox="0 0 10.09 13.094">
  <metadata><?xpacket begin="﻿" id="W5M0MpCehiHzreSzNTczkc9d"?>
<x:xmpmeta xmlns:x="adobe:ns:meta/" x:xmptk="Adobe XMP Core 5.6-c138 79.159824, 2016/09/14-01:09:01        ">
   <rdf:RDF xmlns:rdf="http://www.w3.org/1999/02/22-rdf-syntax-ns#">
      <rdf:Description rdf:about=""/>
   </rdf:RDF>
</x:xmpmeta>
                                                                                                    
                                                                                                    
                                                                                                    
                                                                                                    
                                                                                                    
                                                                                                    
                                                                                                    
                                                                                                    
                                                                                                    
                                                                                                    
                                                                                                    
                                                                                                    
                                                                                                    
                                                                                                    
                                                                                                    
                                                                                                    
                                                                                                    
                                                                                                    
                                                                                                    
                                                                                                    
                           
<?xpacket end="w"?></metadata>
<defs>
    <style>
      .cls-1 {
        fill: #bb9c66;
        fill-rule: evenodd;
      }
    </style>
  </defs>
  <path id="palm" class="cls-1" d="M1326.42,141.5c1.89,0,4.11-.619,4.11,1.624S1328.99,148,1327.1,148s-4.1-2.631-4.1-4.876S1324.53,141.5,1326.42,141.5Zm-2.74-4.063a0.76,0.76,0,0,1,.69.813v4.874a0.7,0.7,0,1,1-1.37,0v-4.874A0.759,0.759,0,0,1,1323.68,137.438Zm2.06-1.625a0.759,0.759,0,0,1,.68.813v6.5a0.7,0.7,0,1,1-1.37,0v-6.5A0.76,0.76,0,0,1,1325.74,135.813Zm2.05-.812a0.751,0.751,0,0,1,.68.812v7.312a0.7,0.7,0,1,1-1.37,0v-7.312A0.759,0.759,0,0,1,1327.79,135Zm2.05,1.625a0.76,0.76,0,0,1,.69.812v5.687a0.7,0.7,0,1,1-1.37,0v-5.687A0.752,0.752,0,0,1,1329.84,136.626ZM1327,143l3.23-.366c0.4-.475,2.37-2.11,2.77-1.633s-0.6,2.524-1,3l-3,4c-0.4.476-1.6-1.524-2-2A3.9,3.9,0,0,1,1327,143Z" transform="translate(-1323 -135)"/>
</svg>
