<svg xmlns="http://www.w3.org/2000/svg" width="50" height="60" viewBox="0 0 50 60"><defs><filter id="iy6ra" width="200%" height="200%" x="-50%" y="-50%"><feGaussianBlur in="SourceGraphic" result="FeGaussianBlur1649Out" stdDeviation="4 4"/></filter><mask id="iy6rb"><path fill="#fff" d="M25 3c12.15 0 22 9.85 22 22s-9.85 22-22 22S3 37.15 3 25 12.85 3 25 3z"/></mask><filter id="iy6rd" width="200%" height="200%" x="-50%" y="-50%"><feGaussianBlur in="SourceGraphic" result="FeGaussianBlur1671Out" stdDeviation="1.5 1.5"/></filter><mask id="iy6re"><path fill="#fff" d="M25 0c13.807 0 25 11.194 25 25 0 13.808-11.193 25-25 25S0 38.808 0 25C0 11.194 11.193 0 25 0zM6 25c0 10.494 8.507 19 19 19s19-8.506 19-19c0-10.493-8.507-19-19-19S6 14.507 6 25z"/></mask><filter id="iy6rf" width="200%" height="200%" x="-50%" y="-50%"><feGaussianBlur in="SourceGraphic" result="FeGaussianBlur1678Out" stdDeviation="0 0"/></filter><mask id="iy6rg"><path fill="#fff" d="M25 0c13.807 0 25 11.194 25 25 0 13.808-11.193 25-25 25S0 38.808 0 25C0 11.194 11.193 0 25 0zM6 25c0 10.494 8.507 19 19 19s19-8.506 19-19c0-10.493-8.507-19-19-19S6 14.507 6 25z"/></mask><mask id="iy6rj" width="2" height="2" x="-1" y="-1"><path fill="#fff" d="M10 14h30v24H10z"/><path d="M25.148 14.678c7.875 0 14.26 4.05 14.26 9.044 0 3.8-3.696 7.052-8.931 8.39-2.328 2.433-6.12 5.477-10.514 5.477 0 0 2.855-2.398 2.538-4.98-6.61-.786-11.612-4.466-11.612-8.887 0-4.995 6.384-9.044 14.26-9.044z"/></mask><filter id="iy6ri" width="56" height="55" x="-3" y="1" filterUnits="userSpaceOnUse"><feOffset dy="5" in="SourceGraphic" result="FeOffset1713Out"/><feGaussianBlur in="FeOffset1713Out" result="FeGaussianBlur1714Out" stdDeviation="1.2 1.2"/></filter><filter id="iy6rk" width="200%" height="200%" x="-50%" y="-50%"><feGaussianBlur in="SourceGraphic" result="FeGaussianBlur1719Out" stdDeviation="0 0"/></filter><mask id="iy6rl"><path fill="#fff" d="M25.148 14.678c7.875 0 14.26 4.05 14.26 9.044 0 3.8-3.696 7.052-8.931 8.39-2.328 2.433-6.12 5.477-10.514 5.477 0 0 2.855-2.398 2.538-4.98-6.61-.786-11.612-4.466-11.612-8.887 0-4.995 6.384-9.044 14.26-9.044z"/></mask><mask id="iy6ro" width="2" height="2" x="-1" y="-1"><path fill="#fff" d="M17 19h15v9H17z"/><path d="M29.791 23.433c.505 0 1.852.506 1.852 2.247 0 1.742-1.728 2.247-2.469 2.247-.741 0-3.703-.048-3.703-3.37s4.32-5.055 4.32-5.055l.617 1.123s-2.468.99-2.468 2.247c0 1.256.617 1.685.617 1.685-.111-.674.729-1.124 1.234-1.124zm-8.1 0c.505 0 1.851.506 1.851 2.247 0 1.742-1.727 2.247-2.469 2.247-.74 0-3.703-.048-3.703-3.37s4.32-5.055 4.32-5.055l.618 1.123s-2.469.99-2.469 2.247c0 1.256.617 1.685.617 1.685-.11-.674.73-1.124 1.235-1.124z"/></mask><filter id="iy6rn" width="35" height="30" x="7" y="9" filterUnits="userSpaceOnUse"><feOffset dy="1" in="SourceGraphic" result="FeOffset1744Out"/><feGaussianBlur in="FeOffset1744Out" result="FeGaussianBlur1745Out" stdDeviation="0 0"/></filter><linearGradient id="iy6rp" x1="24.64" x2="24.37" y1="27.93" y2="19.5" gradientUnits="userSpaceOnUse"><stop offset="0" stop-color="#fff" stop-opacity=".7"/><stop offset="1" stop-opacity=".7"/></linearGradient><clipPath id="iy6rc"><path d="M25 3c12.15 0 22 9.85 22 22s-9.85 22-22 22S3 37.15 3 25 12.85 3 25 3z"/></clipPath><clipPath id="iy6rh"><path d="M25 0c13.807 0 25 11.194 25 25 0 13.808-11.193 25-25 25S0 38.808 0 25C0 11.194 11.193 0 25 0zM6 25c0 10.494 8.507 19 19 19s19-8.506 19-19c0-10.493-8.507-19-19-19S6 14.507 6 25z"/></clipPath><clipPath id="iy6rm"><path d="M25.148 14.678c7.875 0 14.26 4.05 14.26 9.044 0 3.8-3.696 7.052-8.931 8.39-2.328 2.433-6.12 5.477-10.514 5.477 0 0 2.855-2.398 2.538-4.98-6.61-.786-11.612-4.466-11.612-8.887 0-4.995 6.384-9.044 14.26-9.044z"/></clipPath></defs><g><g><g><path fill="#bb9c66" d="M25 23c10.493 0 19 8.283 19 18.5C44 51.718 35.493 60 25 60S6 51.718 6 41.5C6 31.283 14.507 23 25 23z"/></g><g><path fill="#bb9c66" fill-opacity=".45" d="M-5 55V-5h60v60zm8-30c0 12.15 9.85 22 22 22s22-9.85 22-22S37.15 3 25 3 3 12.85 3 25z" filter="url(#iy6ra)" mask="url(&quot;#iy6rb&quot;)"/><path fill="#1c242a" d="M25 3c12.15 0 22 9.85 22 22s-9.85 22-22 22S3 37.15 3 25 12.85 3 25 3z"/><path fill="#bb9c66" fill-opacity=".45" d="M-5 55V-5h60v60zm8-30c0 12.15 9.85 22 22 22s22-9.85 22-22S37.15 3 25 3 3 12.85 3 25z" filter="url(#iy6ra)" mask="url(&quot;#iy6rb&quot;)"/></g><g clip-path="url(#iy6rc)"><path fill="#3e4f5b" d="M25 1c6.075 0 11 4.925 11 11s-4.925 11-11 11-11-4.925-11-11S18.925 1 25 1z"/></g><g clip-path="url(#iy6rc)"><path fill="#3e4f5b" d="M24 46C10.25 46-.91 34.898-1 21.168 2.113 32.04 12.128 40 24 40s21.888-7.959 25-18.832C48.91 34.898 37.75 46 24 46z"/></g><g><path fill="#fff" fill-opacity=".75" d="M-3 53V-3h56v56zm3-28c0 13.808 11.193 25 25 25s25-11.192 25-25C50 11.194 38.807 0 25 0S0 11.194 0 25zM25 6c10.493 0 19 8.507 19 19 0 10.494-8.507 19-19 19S6 35.494 6 25C6 14.507 14.507 6 25 6z" filter="url(#iy6rd)" mask="url(&quot;#iy6re&quot;)"/><path fill="#bb9c66" d="M25 0c13.807 0 25 11.194 25 25 0 13.808-11.193 25-25 25S0 38.808 0 25C0 11.194 11.193 0 25 0zM6 25c0 10.494 8.507 19 19 19s19-8.506 19-19c0-10.493-8.507-19-19-19S6 14.507 6 25z"/><path fill="#fff" fill-opacity=".75" d="M-3 53V-3h56v56zm3-28c0 13.808 11.193 25 25 25s25-11.192 25-25C50 11.194 38.807 0 25 0S0 11.194 0 25zM25 6c10.493 0 19 8.507 19 19 0 10.494-8.507 19-19 19S6 35.494 6 25C6 14.507 14.507 6 25 6z" filter="url(#iy6rd)" mask="url(&quot;#iy6re&quot;)"/><path fill="#c0a16b" d="M0 52V-2h50v54zm0-29c0 13.808 11.193 25 25 25s25-11.192 25-25C50 9.194 38.807-2 25-2S0 9.194 0 23zM25 4c10.493 0 19 8.507 19 19 0 10.494-8.507 19-19 19S6 33.494 6 23C6 12.507 14.507 4 25 4z" filter="url(#iy6rf)" mask="url(&quot;#iy6rg&quot;)"/></g><g clip-path="url(#iy6rh)" opacity=".82"><path fill="#bb9c66" d="M31 16c1.063-.028 14.66 8 13 15-1.66 7-8.05 14-19 14S7.319 37.765 6 31c-1.319-6.765 3-13 3-13-.165-2.041 20.938-1.972 22-2zM0 0h50v25S46.157 2 25 2 0 25 0 25z"/></g><g clip-path="url(#iy6rh)" opacity=".82"><path fill="#bb9c66" d="M9 32s-4.319-6.235-3-13S14.05 5 25 5s17.34 7 19 14c1.66 7-11.937 15.028-13 15-1.062-.028-22.165.041-22-2zm-9-7s3.843 23 25 23 25-23 25-23v25H0z"/></g><g><path fill="#fff" d="M24.5 2a23.427 23.427 0 0 1 16.65 6.915A24.9 24.9 0 0 0 25 3C15.297 3 6.884 8.528 2.741 16.607 6.247 8.037 14.67 2 24.5 2z"/></g><g><path fill="#fff" d="M24.5 46a23.427 23.427 0 0 1-16.649-6.915A24.9 24.9 0 0 0 24.001 45c9.702 0 18.114-5.528 22.258-13.606C42.753 39.963 34.33 46 24.5 46z"/></g><g><g filter="url(#iy6ri)"><path fill="none" d="M25.148 14.678c7.875 0 14.26 4.05 14.26 9.044 0 3.8-3.696 7.052-8.931 8.39-2.328 2.433-6.12 5.477-10.514 5.477 0 0 2.855-2.398 2.538-4.98-6.61-.786-11.612-4.466-11.612-8.887 0-4.995 6.384-9.044 14.26-9.044z" mask="url(&quot;#iy6rj&quot;)"/><path fill-opacity=".75" d="M25.148 14.678c7.875 0 14.26 4.05 14.26 9.044 0 3.8-3.696 7.052-8.931 8.39-2.328 2.433-6.12 5.477-10.514 5.477 0 0 2.855-2.398 2.538-4.98-6.61-.786-11.612-4.466-11.612-8.887 0-4.995 6.384-9.044 14.26-9.044z"/></g><path fill="#ededed" d="M25.148 14.678c7.875 0 14.26 4.05 14.26 9.044 0 3.8-3.696 7.052-8.931 8.39-2.328 2.433-6.12 5.477-10.514 5.477 0 0 2.855-2.398 2.538-4.98-6.61-.786-11.612-4.466-11.612-8.887 0-4.995 6.384-9.044 14.26-9.044z"/><path fill="#fff" d="M10 39V13h30v26zm15.148-23.322c-7.875 0-14.259 4.05-14.259 9.044 0 4.42 5.002 8.1 11.612 8.888.317 2.58-2.538 4.979-2.538 4.979 4.395 0 8.186-3.044 10.514-5.476 5.235-1.339 8.93-4.591 8.93-8.391 0-4.995-6.384-9.044-14.259-9.044z" filter="url(#iy6rk)" mask="url(&quot;#iy6rl&quot;)"/></g><g clip-path="url(#iy6rm)"><path fill="#b2b2b2" d="M32.926 14.678s1.974 4.756 1.296 9.647c-.677 4.89-5.185 4.823-5.185 4.823s-1.036 2.694-5.185 4.823c0 0-.138-2.795-1.296-3.617 0 0-12-1.087-12.963-7.235 0 0-2.593.14-2.593 3.617C7 30.214 14.109 40 22.556 40 31.002 40 42 31.726 42 25.53c0-6.195-9.074-13.9-9.074-10.852z"/></g><g><path fill="#fff" d="M20.611 17.09c3.222 0 5.833 1.35 5.833 3.015 0 1.664-2.611 3.014-5.833 3.014s-5.833-1.35-5.833-3.014c0-1.665 2.611-3.015 5.833-3.015z"/></g><g><g filter="url(#iy6rn)"><path fill="none" d="M29.791 23.433c.505 0 1.852.506 1.852 2.247 0 1.742-1.728 2.247-2.469 2.247-.741 0-3.703-.048-3.703-3.37s4.32-5.055 4.32-5.055l.617 1.123s-2.468.99-2.468 2.247c0 1.256.617 1.685.617 1.685-.111-.674.729-1.124 1.234-1.124zm-8.1 0c.505 0 1.851.506 1.851 2.247 0 1.742-1.727 2.247-2.469 2.247-.74 0-3.703-.048-3.703-3.37s4.32-5.055 4.32-5.055l.618 1.123s-2.469.99-2.469 2.247c0 1.256.617 1.685.617 1.685-.11-.674.73-1.124 1.235-1.124z" mask="url(&quot;#iy6ro&quot;)"/><path fill="#fff" d="M29.791 23.433c.505 0 1.852.506 1.852 2.247 0 1.742-1.728 2.247-2.469 2.247-.741 0-3.703-.048-3.703-3.37s4.32-5.055 4.32-5.055l.617 1.123s-2.468.99-2.468 2.247c0 1.256.617 1.685.617 1.685-.111-.674.729-1.124 1.234-1.124zm-8.1 0c.505 0 1.851.506 1.851 2.247 0 1.742-1.727 2.247-2.469 2.247-.74 0-3.703-.048-3.703-3.37s4.32-5.055 4.32-5.055l.618 1.123s-2.469.99-2.469 2.247c0 1.256.617 1.685.617 1.685-.11-.674.73-1.124 1.235-1.124z"/></g><path fill="#bb9c66" d="M29.791 23.433c.505 0 1.852.506 1.852 2.247 0 1.742-1.728 2.247-2.469 2.247-.741 0-3.703-.048-3.703-3.37s4.32-5.055 4.32-5.055l.617 1.123s-2.468.99-2.468 2.247c0 1.256.617 1.685.617 1.685-.111-.674.729-1.124 1.234-1.124zm-8.1 0c.505 0 1.851.506 1.851 2.247 0 1.742-1.727 2.247-2.469 2.247-.74 0-3.703-.048-3.703-3.37s4.32-5.055 4.32-5.055l.618 1.123s-2.469.99-2.469 2.247c0 1.256.617 1.685.617 1.685-.11-.674.73-1.124 1.235-1.124z"/><path fill="url(#iy6rp)" d="M29.791 23.433c.505 0 1.852.506 1.852 2.247 0 1.742-1.728 2.247-2.469 2.247-.741 0-3.703-.048-3.703-3.37s4.32-5.055 4.32-5.055l.617 1.123s-2.468.99-2.468 2.247c0 1.256.617 1.685.617 1.685-.111-.674.729-1.124 1.234-1.124zm-8.1 0c.505 0 1.851.506 1.851 2.247 0 1.742-1.727 2.247-2.469 2.247-.74 0-3.703-.048-3.703-3.37s4.32-5.055 4.32-5.055l.618 1.123s-2.469.99-2.469 2.247c0 1.256.617 1.685.617 1.685-.11-.674.73-1.124 1.235-1.124z"/></g></g></g></svg>