<svg xmlns="http://www.w3.org/2000/svg" width="50" height="50" viewBox="0 0 50 50"><defs><clipPath id="pmoqa"><path fill="#fff" d="M25 0c13.807 0 25 11.193 25 25S38.807 50 25 50 0 38.807 0 25 11.193 0 25 0z"/></clipPath><clipPath id="pmoqb"><path fill="#fff" d="M35 25c0 5.523-4.477 10-10 10s-10-4.477-10-10 4.477-10 10-10v1a9 9 0 1 0 6.364 2.636l.707-.707A9.969 9.969 0 0 1 35 25z"/></clipPath><clipPath id="pmoqc"><path fill="#fff" d="M16 15v-1h9v9h-1v-8z"/></clipPath></defs><g><g><g><path fill="none" stroke="#bb9c66" stroke-miterlimit="20" stroke-width="2" d="M25 0c13.807 0 25 11.193 25 25S38.807 50 25 50 0 38.807 0 25 11.193 0 25 0z" clip-path="url(&quot;#pmoqa&quot;)"/></g><g><path fill="none" stroke="#bb9c66" stroke-miterlimit="20" stroke-width="2" d="M35 25c0 5.523-4.477 10-10 10s-10-4.477-10-10 4.477-10 10-10v1a9 9 0 1 0 6.364 2.636l.707-.707A9.969 9.969 0 0 1 35 25z" clip-path="url(&quot;#pmoqb&quot;)"/></g><g><path fill="none" stroke="#bb9c66" stroke-miterlimit="20" stroke-width="2" d="M16 15v-1h9v9h-1v-8z" clip-path="url(&quot;#pmoqc&quot;)"/></g></g></g></svg>