<svg xmlns="http://www.w3.org/2000/svg" width="50" height="55" viewBox="0 0 50 55"><defs><filter id="2wvta" width="200%" height="200%" x="-50%" y="-50%"><feGaussianBlur in="SourceGraphic" result="FeGaussianBlur1807Out" stdDeviation="4 4"/></filter><mask id="2wvtb"><path fill="#fff" d="M25 1c12.15 0 22 9.85 22 22s-9.85 22-22 22S3 35.15 3 23 12.85 1 25 1z"/></mask><mask id="2wvte" width="2" height="2" x="-1" y="-1"><path fill="#fff" d="M13 23h13v10H13z"/><path d="M25.34 24.331l-.548-.831-11.641 7.791.556.831z"/></mask><filter id="2wvtd" width="43" height="42" x="-2" y="8" filterUnits="userSpaceOnUse"><feOffset dy="2" in="SourceGraphic" result="FeOffset1849Out"/><feGaussianBlur in="FeOffset1849Out" result="FeGaussianBlur1850Out" stdDeviation="2 2"/></filter><mask id="2wvtg" width="2" height="2" x="-1" y="-1"><path fill="#fff" d="M14 14h22v13H14z"/><path d="M25 21c.572 0 1.107.16 1.562.438L34 14l2 1-8.128 8.129a3 3 0 1 1-5.87.781L14 21v-2l8.644 3.143A2.995 2.995 0 0 1 25 21z"/></mask><filter id="2wvtf" width="52" height="45" x="-1" y="-1" filterUnits="userSpaceOnUse"><feOffset dy="2" in="SourceGraphic" result="FeOffset1865Out"/><feGaussianBlur in="FeOffset1865Out" result="FeGaussianBlur1866Out" stdDeviation="2 2"/></filter><linearGradient id="2wvth" x1="25" x2="25" y1="27" y2="14" gradientUnits="userSpaceOnUse"><stop offset="0" stop-color="#c6c9c9"/><stop offset="1" stop-color="#fff"/></linearGradient><filter id="2wvti" width="200%" height="200%" x="-50%" y="-50%"><feGaussianBlur in="SourceGraphic" result="FeGaussianBlur1887Out" stdDeviation="0 0"/></filter><mask id="2wvtj"><path fill="#fff" d="M25 21c.572 0 1.107.16 1.562.438L34 14l2 1-8.128 8.129a3 3 0 1 1-5.87.781L14 21v-2l8.644 3.143A2.995 2.995 0 0 1 25 21z"/></mask><linearGradient id="2wvtk" x1="25" x2="25" y1="41" y2="5" gradientUnits="userSpaceOnUse"><stop offset="0" stop-opacity=".33"/><stop offset="1" stop-color="#fff" stop-opacity=".33"/></linearGradient><filter id="2wvtl" width="200%" height="200%" x="-50%" y="-50%"><feGaussianBlur in="SourceGraphic" result="FeGaussianBlur1913Out" stdDeviation="0 0"/></filter><mask id="2wvtm"><path fill="#fff" d="M24 5h2v3.033a15.222 15.222 0 0 0-2 0zm4.693.355l1.932.517-.784 2.926a14.89 14.89 0 0 0-1.932-.516zm4.441 1.557l1.732 1-1.516 2.625c-.552-.37-1.13-.705-1.731-1.001zm3.887 2.653l1.414 1.414-2.145 2.145c-.44-.502-.912-.975-1.414-1.414zm3.067 3.569l1 1.732-2.624 1.515c-.296-.6-.63-1.179-1.001-1.731zm2.04 4.242l.517 1.931-2.927.785a14.89 14.89 0 0 0-.516-1.932zM43 22v2h-3.033a15.224 15.224 0 0 0 0-2zm-.355 4.693l-.517 1.932-2.926-.784c.213-.626.386-1.272.516-1.932zm-1.557 4.441l-1 1.732-2.625-1.516c.37-.552.705-1.13 1.001-1.73zm-2.653 3.887l-1.414 1.414-2.145-2.145c.502-.44.975-.912 1.414-1.414zm-3.569 3.067l-1.732 1-1.515-2.624c.6-.295 1.179-.63 1.731-1.001zm-4.241 2.04l-1.932.518-.785-2.928a14.89 14.89 0 0 0 1.933-.516zM26 41h-2v-3.033a15.226 15.226 0 0 0 2 0zm-4.693-.354l-1.932-.518.784-2.926a14.89 14.89 0 0 0 1.933.516zm-4.44-1.558l-1.733-1 1.516-2.625c.552.37 1.13.706 1.731 1.001zm-3.888-2.653l-1.414-1.414 2.145-2.145c.44.502.912.975 1.414 1.414zm-3.067-3.569l-1-1.732 2.624-1.515c.296.601.63 1.18 1.001 1.731zm-2.04-4.24l-.517-1.933 2.927-.784c.13.66.303 1.305.516 1.932zM7 24v-2h3.033a15.224 15.224 0 0 0 0 2zm.355-4.693l.517-1.931 2.926.784a14.889 14.889 0 0 0-.516 1.932zm1.557-4.44l1-1.733 2.625 1.516c-.37.552-.705 1.13-1.001 1.731zm2.653-3.888l1.414-1.414 2.145 2.145c-.502.44-.975.912-1.414 1.414zm3.569-3.067l1.732-1 1.515 2.624c-.6.296-1.179.63-1.731 1.001zm4.241-2.04l1.932-.517.785 2.927c-.661.13-1.306.303-1.933.516z"/></mask><linearGradient id="2wvtn" x1="25" x2="25" y1="41" y2="5" gradientUnits="userSpaceOnUse"><stop offset="0" stop-opacity=".19"/><stop offset="1" stop-color="#fff" stop-opacity=".19"/></linearGradient><filter id="2wvto" width="200%" height="200%" x="-50%" y="-50%"><feGaussianBlur in="SourceGraphic" result="FeGaussianBlur1939Out" stdDeviation="0 0"/></filter><mask id="2wvtp"><path fill="#fff" d="M24 5h2v3h-2zm0 33h2v3h-2zM7 24v-2h3v2zm33 0v-2h3v2z"/></mask><clipPath id="2wvtq"><path fill="#fff" d="M25 30a3 3 0 1 1 0 6 3 3 0 0 1 0-6zm5 3v-1h3v1zm-13 0v-1h3v1zm5-18v-1h6v1z"/></clipPath><clipPath id="2wvtc"><path d="M25 1c12.15 0 22 9.85 22 22s-9.85 22-22 22S3 35.15 3 23 12.85 1 25 1z"/></clipPath></defs><g><g><path fill="#bb9c66" d="M25 18c10.493 0 19 8.283 19 18.5C44 46.718 35.493 55 25 55S6 46.718 6 36.5C6 26.283 14.507 18 25 18z"/></g><g><path fill="#bb9c66" fill-opacity=".45" d="M-5 53V-7h60v60zm8-30c0 12.15 9.85 22 22 22s22-9.85 22-22S37.15 1 25 1 3 10.85 3 23z" filter="url(#2wvta)" mask="url(&quot;#2wvtb&quot;)"/><path fill="#1c242a" d="M25 1c12.15 0 22 9.85 22 22s-9.85 22-22 22S3 35.15 3 23 12.85 1 25 1z"/><path fill="#bb9c66" fill-opacity=".45" d="M-5 53V-7h60v60zm8-30c0 12.15 9.85 22 22 22s22-9.85 22-22S37.15 1 25 1 3 10.85 3 23z" filter="url(#2wvta)" mask="url(&quot;#2wvtb&quot;)"/></g><g clip-path="url(#2wvtc)"><path fill="#3e4f5b" d="M25-1c6.075 0 11 4.925 11 11s-4.925 11-11 11-11-4.925-11-11S18.925-1 25-1z"/></g><g clip-path="url(#2wvtc)"><path fill="#3e4f5b" d="M24 44C10.25 44-.91 32.898-1 19.168 2.113 30.04 12.128 38 24 38s21.888-7.959 25-18.832C48.91 32.898 37.75 44 24 44z"/></g><g clip-path="url(#clip-2158)" opacity=".82"><path fill="#bb9c66" d="M9 30s-4.319-6.235-3-13S14.05 3 25 3s17.34 7 19 14c1.66 7-11.937 15.029-13 15-1.062-.028-22.165.041-22-2zm-9-7s3.843 23 25 23 25-23 25-23v25H0z"/></g><g><path fill="#fff" d="M24.5 0a23.427 23.427 0 0 1 16.65 6.915A24.9 24.9 0 0 0 25 1C15.297 1 6.884 6.528 2.741 14.607 6.247 6.037 14.67 0 24.5 0z"/></g><g><path fill="#fff" d="M24.5 44a23.427 23.427 0 0 1-16.649-6.915A24.9 24.9 0 0 0 24.001 43c9.702 0 18.114-5.528 22.258-13.606C42.753 37.963 34.33 44 24.5 44z"/></g><g><g filter="url(#2wvtd)"><path fill="none" d="M25.34 24.331l-.548-.831-11.641 7.791.556.831z" mask="url(&quot;#2wvte&quot;)"/><path d="M25.34 24.331l-.548-.831-11.641 7.791.556.831z"/></g><path fill="#b6ccde" d="M25.34 24.331l-.548-.831-11.641 7.791.556.831z"/></g><g><g filter="url(#2wvtf)"><path fill="none" d="M25 21c.572 0 1.107.16 1.562.438L34 14l2 1-8.128 8.129a3 3 0 1 1-5.87.781L14 21v-2l8.644 3.143A2.995 2.995 0 0 1 25 21z" mask="url(&quot;#2wvtg&quot;)"/><path d="M25 21c.572 0 1.107.16 1.562.438L34 14l2 1-8.128 8.129a3 3 0 1 1-5.87.781L14 21v-2l8.644 3.143A2.995 2.995 0 0 1 25 21z"/></g><path fill="#fff" d="M25 21c.572 0 1.107.16 1.562.438L34 14l2 1-8.128 8.129a3 3 0 1 1-5.87.781L14 21v-2l8.644 3.143A2.995 2.995 0 0 1 25 21z"/><path fill="url(#2wvth)" d="M25 21c.572 0 1.107.16 1.562.438L34 14l2 1-8.128 8.129a3 3 0 1 1-5.87.781L14 21v-2l8.644 3.143A2.995 2.995 0 0 1 25 21z"/><path fill="#65727c" fill-opacity=".75" d="M14 28V13h22v1l-2-1-7.438 7.438A2.986 2.986 0 0 0 25 20c-.956 0-1.807.447-2.356 1.143L14 18v2l8.001 2.91L22 23a3 3 0 1 0 5.872-.871L36 14v14zm22-14z" filter="url(#2wvti)" mask="url(&quot;#2wvtj&quot;)"/></g><g opacity=".57"><path fill="#8194a3" d="M24 5h2v3.033a15.222 15.222 0 0 0-2 0zm4.693.355l1.932.517-.784 2.926a14.89 14.89 0 0 0-1.932-.516zm4.441 1.557l1.732 1-1.516 2.625c-.552-.37-1.13-.705-1.731-1.001zm3.887 2.653l1.414 1.414-2.145 2.145c-.44-.502-.912-.975-1.414-1.414zm3.067 3.569l1 1.732-2.624 1.515c-.296-.6-.63-1.179-1.001-1.731zm2.04 4.242l.517 1.931-2.927.785a14.89 14.89 0 0 0-.516-1.932zM43 22v2h-3.033a15.224 15.224 0 0 0 0-2zm-.355 4.693l-.517 1.932-2.926-.784c.213-.626.386-1.272.516-1.932zm-1.557 4.441l-1 1.732-2.625-1.516c.37-.552.705-1.13 1.001-1.73zm-2.653 3.887l-1.414 1.414-2.145-2.145c.502-.44.975-.912 1.414-1.414zm-3.569 3.067l-1.732 1-1.515-2.624c.6-.295 1.179-.63 1.731-1.001zm-4.241 2.04l-1.932.518-.785-2.928a14.89 14.89 0 0 0 1.933-.516zM26 41h-2v-3.033a15.226 15.226 0 0 0 2 0zm-4.693-.354l-1.932-.518.784-2.926a14.89 14.89 0 0 0 1.933.516zm-4.44-1.558l-1.733-1 1.516-2.625c.552.37 1.13.706 1.731 1.001zm-3.888-2.653l-1.414-1.414 2.145-2.145c.44.502.912.975 1.414 1.414zm-3.067-3.569l-1-1.732 2.624-1.515c.296.601.63 1.18 1.001 1.731zm-2.04-4.24l-.517-1.933 2.927-.784c.13.66.303 1.305.516 1.932zM7 24v-2h3.033a15.224 15.224 0 0 0 0 2zm.355-4.693l.517-1.931 2.926.784a14.889 14.889 0 0 0-.516 1.932zm1.557-4.44l1-1.733 2.625 1.516c-.37.552-.705 1.13-1.001 1.731zm2.653-3.888l1.414-1.414 2.145 2.145c-.502.44-.975.912-1.414 1.414zm3.569-3.067l1.732-1 1.515 2.624c-.6.296-1.179.63-1.731 1.001zm4.241-2.04l1.932-.517.785 2.927c-.661.13-1.306.303-1.933.516z"/><path fill="url(#2wvtk)" d="M24 5h2v3.033a15.222 15.222 0 0 0-2 0zm4.693.355l1.932.517-.784 2.926a14.89 14.89 0 0 0-1.932-.516zm4.441 1.557l1.732 1-1.516 2.625c-.552-.37-1.13-.705-1.731-1.001zm3.887 2.653l1.414 1.414-2.145 2.145c-.44-.502-.912-.975-1.414-1.414zm3.067 3.569l1 1.732-2.624 1.515c-.296-.6-.63-1.179-1.001-1.731zm2.04 4.242l.517 1.931-2.927.785a14.89 14.89 0 0 0-.516-1.932zM43 22v2h-3.033a15.224 15.224 0 0 0 0-2zm-.355 4.693l-.517 1.932-2.926-.784c.213-.626.386-1.272.516-1.932zm-1.557 4.441l-1 1.732-2.625-1.516c.37-.552.705-1.13 1.001-1.73zm-2.653 3.887l-1.414 1.414-2.145-2.145c.502-.44.975-.912 1.414-1.414zm-3.569 3.067l-1.732 1-1.515-2.624c.6-.295 1.179-.63 1.731-1.001zm-4.241 2.04l-1.932.518-.785-2.928a14.89 14.89 0 0 0 1.933-.516zM26 41h-2v-3.033a15.226 15.226 0 0 0 2 0zm-4.693-.354l-1.932-.518.784-2.926a14.89 14.89 0 0 0 1.933.516zm-4.44-1.558l-1.733-1 1.516-2.625c.552.37 1.13.706 1.731 1.001zm-3.888-2.653l-1.414-1.414 2.145-2.145c.44.502.912.975 1.414 1.414zm-3.067-3.569l-1-1.732 2.624-1.515c.296.601.63 1.18 1.001 1.731zm-2.04-4.24l-.517-1.933 2.927-.784c.13.66.303 1.305.516 1.932zM7 24v-2h3.033a15.224 15.224 0 0 0 0 2zm.355-4.693l.517-1.931 2.926.784a14.889 14.889 0 0 0-.516 1.932zm1.557-4.44l1-1.733 2.625 1.516c-.37.552-.705 1.13-1.001 1.731zm2.653-3.888l1.414-1.414 2.145 2.145c-.502.44-.975.912-1.414 1.414zm3.569-3.067l1.732-1 1.515 2.624c-.6.296-1.179.63-1.731 1.001zm4.241-2.04l1.932-.517.785 2.927c-.661.13-1.306.303-1.933.516z"/><path fill="#d2e2ef" d="M7 42V25h3.033a15.224 15.224 0 0 1 0-2H7V4h36v19h-3.033a15.224 15.224 0 0 1 0 2H43v17H26v-3.033a15.223 15.223 0 0 1-2 0V42zM24 9.033a15.226 15.226 0 0 1 2 0V6h-2zm3.909.249c.66.13 1.305.303 1.932.516l.784-2.926-1.932-.517zm3.71 1.254c.6.296 1.179.63 1.731 1.001l1.516-2.625-1.732-1zm3.257 2.174c.502.44.975.912 1.414 1.414l2.145-2.145-1.414-1.414zm2.587 2.94c.37.552.705 1.13 1.001 1.731l2.624-1.515-1-1.732zm1.739 3.51c.213.626.386 1.271.516 1.932l2.927-.785-.517-1.931zM43 25v-2 2zm-3.282 1.909c-.13.66-.303 1.306-.516 1.932l2.926.784.517-1.932zm-1.254 3.71c-.296.601-.63 1.18-1.001 1.731l2.625 1.516 1-1.732zm-2.174 3.257c-.44.502-.912.975-1.414 1.414l2.145 2.145 1.414-1.414zm-2.94 2.587c-.552.37-1.13.706-1.731 1.001l1.515 2.625 1.732-1zm-3.51 1.739a14.89 14.89 0 0 1-1.932.516l.785 2.928 1.932-.518zM24 42h2-2zm-1.908-3.282a14.89 14.89 0 0 1-1.933-.516l-.784 2.926 1.932.518zm-3.71-1.254c-.602-.295-1.18-.63-1.732-1.001l-1.516 2.625 1.732 1zm-3.258-2.174c-.502-.44-.975-.912-1.414-1.414l-2.145 2.145 1.414 1.414zm-2.587-2.94c-.37-.552-.705-1.13-1.001-1.73l-2.624 1.514 1 1.732zm-1.739-3.509a14.89 14.89 0 0 1-.516-1.932l-2.927.784.517 1.932zM7 23.001v2-2zm3.282-1.91c.13-.66.303-1.305.516-1.931l-2.926-.784-.517 1.931zm1.254-3.71c.296-.6.63-1.179 1.001-1.731l-2.625-1.516-1 1.732zm2.174-3.257c.44-.502.912-.974 1.414-1.414l-2.145-2.145-1.414 1.414zm2.94-2.587c.552-.37 1.13-.705 1.731-1.001l-1.515-2.624-1.732 1zm3.51-1.739a14.89 14.89 0 0 1 1.932-.516l-.785-2.927-1.932.517z" filter="url(#2wvtl)" mask="url(&quot;#2wvtm&quot;)"/></g><g><path fill="#bb9c66" d="M24 5h2v3h-2zm0 33h2v3h-2zM7 24v-2h3v2zm33 0v-2h3v2z"/><path fill="url(#2wvtn)" d="M24 5h2v3h-2zm0 33h2v3h-2zM7 24v-2h3v2zm33 0v-2h3v2z"/><path fill="#d7c4a3" fill-opacity=".32" d="M7 42V25h3v-2H7V4h36v19h-3v2h3v17H26v-3h-2v3zM24 9h2V6h-2zm0 33h2-2zM7 23v2-2zm36 2v-2 2z" filter="url(#2wvto)" mask="url(&quot;#2wvtp&quot;)"/></g><g><path fill="none" stroke="#bb9c66" stroke-miterlimit="20" stroke-width="2" d="M25 30a3 3 0 1 1 0 6 3 3 0 0 1 0-6zm5 3v-1h3v1zm-13 0v-1h3v1zm5-18v-1h6v1z" clip-path="url(&quot;#2wvtq&quot;)"/></g></g></svg>