<svg xmlns="http://www.w3.org/2000/svg" width="75" height="74" viewBox="0 0 75 74"><defs><clipPath id="p9y3a"><path fill="#fff" d="M37.5 0C58.21 0 75 16.375 75 36.574c0 20.2-16.79 36.575-37.5 36.575S0 56.773 0 36.574 16.79 0 37.5 0z"/></clipPath><linearGradient id="p9y3e" x1="38" x2="37" y1="53" y2="18" gradientUnits="userSpaceOnUse"><stop offset="0" stop-opacity=".96"/><stop offset=".5" stop-color="#d0d0d0" stop-opacity=".96"/><stop offset="1" stop-color="#9e9e9e" stop-opacity=".96"/></linearGradient><filter id="p9y3c" width="200%" height="200%" x="-50%" y="-50%"><feGaussianBlur in="SourceGraphic" result="FeGaussianBlur1297Out" stdDeviation="6.5 6.5"/></filter><mask id="p9y3d"><path fill="#fff" d="M58.8 49.558C58.187 51.596 56.272 53 54.097 53H20.902c-2.176 0-4.091-1.404-4.705-3.442-.612-2.037.225-4.228 2.059-5.372l16.598-10.383c.063-.04.128-.077.194-.113v-2.934c0-.63.26-1.247.718-1.692a2.497 2.497 0 0 1 1.733-.7c1.577-.003 2.853-1.252 2.86-2.79-.007-1.54-1.283-2.786-2.86-2.79-1.58.004-2.855 1.25-2.858 2.79h-4.903c0-4.184 3.473-7.572 7.761-7.574 4.288.002 7.759 3.39 7.759 7.573 0 3.35-2.223 6.188-5.307 7.19v.927c.065.036.131.073.194.113l16.598 10.383c1.83 1.144 2.67 3.335 2.056 5.372zm-4.702-1.346L37.499 37.83 20.902 48.212z"/></mask><filter id="p9y3f" width="200%" height="200%" x="-50%" y="-50%"><feGaussianBlur in="SourceGraphic" result="FeGaussianBlur1304Out" stdDeviation="0 0"/></filter><mask id="p9y3g"><path fill="#fff" d="M58.8 49.558C58.187 51.596 56.272 53 54.097 53H20.902c-2.176 0-4.091-1.404-4.705-3.442-.612-2.037.225-4.228 2.059-5.372l16.598-10.383c.063-.04.128-.077.194-.113v-2.934c0-.63.26-1.247.718-1.692a2.497 2.497 0 0 1 1.733-.7c1.577-.003 2.853-1.252 2.86-2.79-.007-1.54-1.283-2.786-2.86-2.79-1.58.004-2.855 1.25-2.858 2.79h-4.903c0-4.184 3.473-7.572 7.761-7.574 4.288.002 7.759 3.39 7.759 7.573 0 3.35-2.223 6.188-5.307 7.19v.927c.065.036.131.073.194.113l16.598 10.383c1.83 1.144 2.67 3.335 2.056 5.372zm-4.702-1.346L37.499 37.83 20.902 48.212z"/></mask><clipPath id="p9y3b"><path d="M37.5 0C58.21 0 75 16.375 75 36.574c0 20.2-16.79 36.575-37.5 36.575S0 56.773 0 36.574 16.79 0 37.5 0z"/></clipPath></defs><g><g><g><path fill="#1c242a" d="M37.5 0C58.21 0 75 16.375 75 36.574c0 20.2-16.79 36.575-37.5 36.575S0 56.773 0 36.574 16.79 0 37.5 0z"/><path fill="none" stroke="#000" stroke-linecap="round" stroke-linejoin="round" stroke-miterlimit="20" stroke-width="6" d="M37.5 0C58.21 0 75 16.375 75 36.574c0 20.2-16.79 36.575-37.5 36.575S0 56.773 0 36.574 16.79 0 37.5 0z" clip-path="url(&quot;#p9y3a&quot;)"/></g><g clip-path="url(#p9y3b)"><path fill="#fff" fill-opacity=".24" d="M3 66V5h69v61zm55.8-16.442c.614-2.037-.227-4.228-2.057-5.372L40.145 33.803c-.063-.04-.129-.077-.194-.113v-.927c3.084-1.002 5.307-3.84 5.307-7.19 0-4.183-3.47-7.571-7.759-7.573-4.288.002-7.76 3.39-7.76 7.573h4.902c.003-1.538 1.279-2.785 2.858-2.79 1.577.005 2.853 1.252 2.86 2.79-.007 1.539-1.283 2.788-2.86 2.79-.645 0-1.278.256-1.733.7a2.374 2.374 0 0 0-.718 1.693v2.934a3.704 3.704 0 0 0-.194.113L18.256 44.186c-1.834 1.144-2.67 3.335-2.06 5.372.615 2.038 2.53 3.442 4.706 3.442h33.196c2.175 0 4.09-1.404 4.701-3.442zm-37.898-1.346L37.499 37.83l16.599 10.382z" filter="url(#p9y3c)" mask="url(&quot;#p9y3d&quot;)"/><path fill="#bb9c66" d="M58.8 49.558C58.187 51.596 56.272 53 54.097 53H20.902c-2.176 0-4.091-1.404-4.705-3.442-.612-2.037.225-4.228 2.059-5.372l16.598-10.383c.063-.04.128-.077.194-.113v-2.934c0-.63.26-1.247.718-1.692a2.497 2.497 0 0 1 1.733-.7c1.577-.003 2.853-1.252 2.86-2.79-.007-1.54-1.283-2.786-2.86-2.79-1.58.004-2.855 1.25-2.858 2.79h-4.903c0-4.184 3.473-7.572 7.761-7.574 4.288.002 7.759 3.39 7.759 7.573 0 3.35-2.223 6.188-5.307 7.19v.927c.065.036.131.073.194.113l16.598 10.383c1.83 1.144 2.67 3.335 2.056 5.372zm-4.702-1.346L37.499 37.83 20.902 48.212z"/><path fill="url(#p9y3e)" d="M58.8 49.558C58.187 51.596 56.272 53 54.097 53H20.902c-2.176 0-4.091-1.404-4.705-3.442-.612-2.037.225-4.228 2.059-5.372l16.598-10.383c.063-.04.128-.077.194-.113v-2.934c0-.63.26-1.247.718-1.692a2.497 2.497 0 0 1 1.733-.7c1.577-.003 2.853-1.252 2.86-2.79-.007-1.54-1.283-2.786-2.86-2.79-1.58.004-2.855 1.25-2.858 2.79h-4.903c0-4.184 3.473-7.572 7.761-7.574 4.288.002 7.759 3.39 7.759 7.573 0 3.35-2.223 6.188-5.307 7.19v.927c.065.036.131.073.194.113l16.598 10.383c1.83 1.144 2.67 3.335 2.056 5.372zm-4.702-1.346L37.499 37.83 20.902 48.212z"/><path fill="#fff" fill-opacity=".24" d="M3 66V5h69v61zm55.8-16.442c.614-2.037-.227-4.228-2.057-5.372L40.145 33.803c-.063-.04-.129-.077-.194-.113v-.927c3.084-1.002 5.307-3.84 5.307-7.19 0-4.183-3.47-7.571-7.759-7.573-4.288.002-7.76 3.39-7.76 7.573h4.902c.003-1.538 1.279-2.785 2.858-2.79 1.577.005 2.853 1.252 2.86 2.79-.007 1.539-1.283 2.788-2.86 2.79-.645 0-1.278.256-1.733.7a2.374 2.374 0 0 0-.718 1.693v2.934a3.704 3.704 0 0 0-.194.113L18.256 44.186c-1.834 1.144-2.67 3.335-2.06 5.372.615 2.038 2.53 3.442 4.706 3.442h33.196c2.175 0 4.09-1.404 4.701-3.442zm-37.898-1.346L37.499 37.83l16.599 10.382z" filter="url(#p9y3c)" mask="url(&quot;#p9y3d&quot;)"/><path fill="#fff1d8" fill-opacity=".44" d="M16 54v-4.671c.01.41.075.822.197 1.23.614 2.037 2.53 3.44 4.705 3.44h33.196c2.175 0 4.09-1.403 4.701-3.44.615-2.038-.226-4.229-2.056-5.373L40.145 34.803c-.063-.04-.129-.077-.194-.113v-.927c3.084-1.002 5.307-3.84 5.307-7.19 0-4.183-3.47-7.571-7.759-7.573-4.288.002-7.76 3.39-7.76 7.573h4.902c.003-1.538 1.279-2.785 2.858-2.79 1.577.005 2.853 1.252 2.86 2.79-.007 1.539-1.283 2.788-2.86 2.79-.645 0-1.278.256-1.733.7a2.374 2.374 0 0 0-.718 1.693v2.934a3.704 3.704 0 0 0-.194.113L18.256 45.186A4.755 4.755 0 0 0 16 49.098V17h43v37zm4.902-4.788L37.499 38.83l16.599 10.382zM16 49.329v-.231a4.656 4.656 0 0 0 0 .23z" filter="url(#p9y3f)" mask="url(&quot;#p9y3g&quot;)"/></g></g></g></svg>