<svg xmlns="http://www.w3.org/2000/svg" width="75" height="74" viewBox="0 0 75 74"><defs><clipPath id="o1ola"><path fill="#fff" d="M37.5 0C58.21 0 75 16.375 75 36.574c0 20.2-16.79 36.574-37.5 36.574S0 56.774 0 36.574C0 16.375 16.79 0 37.5 0z"/></clipPath><linearGradient id="o1ole" x1="38" x2="37" y1="71" y2="2" gradientUnits="userSpaceOnUse"><stop offset="0" stop-opacity=".96"/><stop offset=".5" stop-color="#d0d0d0" stop-opacity=".96"/><stop offset="1" stop-color="#9e9e9e" stop-opacity=".96"/></linearGradient><filter id="o1olc" width="200%" height="200%" x="-50%" y="-50%"><feGaussianBlur in="SourceGraphic" result="FeGaussianBlur1441Out" stdDeviation="6.5 6.5"/></filter><mask id="o1old"><path fill="#fff" d="M56.998 36.717C56.997 42.674 54.373 47.504 50 51v20H25V51c-4.373-3.496-6.997-8.326-6.998-14.283 0-5.956 3.625-12.221 7.998-15.717V2h23v19c4.373 3.497 7.997 9.762 7.998 15.717zm-4.272 0c0-4.118-1.7-7.828-4.46-10.528-2.762-2.698-6.555-4.36-10.766-4.361-4.211.001-8.005 1.663-10.767 4.36-2.758 2.701-4.458 6.411-4.459 10.53.001 4.118 1.7 7.827 4.46 10.53 2.761 2.697 6.555 4.36 10.766 4.36s8.004-1.663 10.767-4.36c2.758-2.703 4.458-6.412 4.459-10.53zM50 35v3H36V27h3v8z"/></mask><filter id="o1olf" width="200%" height="200%" x="-50%" y="-50%"><feGaussianBlur in="SourceGraphic" result="FeGaussianBlur1448Out" stdDeviation="0 0"/></filter><mask id="o1olg"><path fill="#fff" d="M56.998 36.717C56.997 42.674 54.373 47.504 50 51v20H25V51c-4.373-3.496-6.997-8.326-6.998-14.283 0-5.956 3.625-12.221 7.998-15.717V2h23v19c4.373 3.497 7.997 9.762 7.998 15.717zm-4.272 0c0-4.118-1.7-7.828-4.46-10.528-2.762-2.698-6.555-4.36-10.766-4.361-4.211.001-8.005 1.663-10.767 4.36-2.758 2.701-4.458 6.411-4.459 10.53.001 4.118 1.7 7.827 4.46 10.53 2.761 2.697 6.555 4.36 10.766 4.36s8.004-1.663 10.767-4.36c2.758-2.703 4.458-6.412 4.459-10.53zM50 35v3H36V27h3v8z"/></mask><clipPath id="o1olb"><path d="M37.5 0C58.21 0 75 16.375 75 36.574c0 20.2-16.79 36.574-37.5 36.574S0 56.774 0 36.574C0 16.375 16.79 0 37.5 0z"/></clipPath></defs><g><g><g><path fill="#1c242a" d="M37.5 0C58.21 0 75 16.375 75 36.574c0 20.2-16.79 36.574-37.5 36.574S0 56.774 0 36.574C0 16.375 16.79 0 37.5 0z"/><path fill="none" stroke="#000" stroke-linecap="round" stroke-linejoin="round" stroke-miterlimit="20" stroke-width="6" d="M37.5 0C58.21 0 75 16.375 75 36.574c0 20.2-16.79 36.574-37.5 36.574S0 56.774 0 36.574C0 16.375 16.79 0 37.5 0z" clip-path="url(&quot;#o1ola&quot;)"/></g><g clip-path="url(#o1olb)"><path fill="#fff" fill-opacity=".24" d="M5 84v-95h65v95zm51.998-47.283C56.997 30.762 53.373 24.497 49 21V2H26v19c-4.373 3.496-7.997 9.761-7.998 15.717 0 5.957 2.625 10.787 6.998 14.283v20h25V51c4.373-3.496 6.997-8.326 6.998-14.283zm-8.731 10.53c-2.763 2.698-6.556 4.36-10.767 4.36-4.211 0-8.005-1.662-10.767-4.36-2.758-2.702-4.458-6.411-4.459-10.53.001-4.118 1.7-7.828 4.46-10.528 2.761-2.698 6.555-4.36 10.766-4.361 4.211.001 8.004 1.663 10.767 4.36 2.758 2.701 4.458 6.411 4.459 10.53 0 4.118-1.7 7.827-4.46 10.53zM39 35v-8h-3v11h14v-3z" filter="url(#o1olc)" mask="url(&quot;#o1old&quot;)"/><path fill="#bb9c66" d="M56.998 36.717C56.997 42.674 54.373 47.504 50 51v20H25V51c-4.373-3.496-6.997-8.326-6.998-14.283 0-5.956 3.625-12.221 7.998-15.717V2h23v19c4.373 3.497 7.997 9.762 7.998 15.717zm-4.272 0c0-4.118-1.7-7.828-4.46-10.528-2.762-2.698-6.555-4.36-10.766-4.361-4.211.001-8.005 1.663-10.767 4.36-2.758 2.701-4.458 6.411-4.459 10.53.001 4.118 1.7 7.827 4.46 10.53 2.761 2.697 6.555 4.36 10.766 4.36s8.004-1.663 10.767-4.36c2.758-2.703 4.458-6.412 4.459-10.53zM50 35v3H36V27h3v8z"/><path fill="url(#o1ole)" d="M56.998 36.717C56.997 42.674 54.373 47.504 50 51v20H25V51c-4.373-3.496-6.997-8.326-6.998-14.283 0-5.956 3.625-12.221 7.998-15.717V2h23v19c4.373 3.497 7.997 9.762 7.998 15.717zm-4.272 0c0-4.118-1.7-7.828-4.46-10.528-2.762-2.698-6.555-4.36-10.766-4.361-4.211.001-8.005 1.663-10.767 4.36-2.758 2.701-4.458 6.411-4.459 10.53.001 4.118 1.7 7.827 4.46 10.53 2.761 2.697 6.555 4.36 10.766 4.36s8.004-1.663 10.767-4.36c2.758-2.703 4.458-6.412 4.459-10.53zM50 35v3H36V27h3v8z"/><path fill="#fff" fill-opacity=".24" d="M5 84v-95h65v95zm51.998-47.283C56.997 30.762 53.373 24.497 49 21V2H26v19c-4.373 3.496-7.997 9.761-7.998 15.717 0 5.957 2.625 10.787 6.998 14.283v20h25V51c4.373-3.496 6.997-8.326 6.998-14.283zm-8.731 10.53c-2.763 2.698-6.556 4.36-10.767 4.36-4.211 0-8.005-1.662-10.767-4.36-2.758-2.702-4.458-6.411-4.459-10.53.001-4.118 1.7-7.828 4.46-10.528 2.761-2.698 6.555-4.36 10.766-4.361 4.211.001 8.004 1.663 10.767 4.36 2.758 2.701 4.458 6.411 4.459 10.53 0 4.118-1.7 7.827-4.46 10.53zM39 35v-8h-3v11h14v-3z" filter="url(#o1olc)" mask="url(&quot;#o1old&quot;)"/><path fill="#fff1d8" fill-opacity=".44" d="M18 72V1h39v71h-7V52c4.373-3.496 6.997-8.326 6.998-14.283C56.997 31.762 53.373 25.497 49 22V3H26v19c-4.373 3.496-7.997 9.761-7.998 15.717 0 5.957 2.625 10.787 6.998 14.283v20zm7 0h25-25zm23.267-23.753c-2.763 2.698-6.556 4.36-10.767 4.36-4.211 0-8.005-1.662-10.767-4.36-2.758-2.702-4.458-6.411-4.459-10.53.001-4.118 1.7-7.828 4.46-10.528 2.761-2.698 6.555-4.36 10.766-4.361 4.211.001 8.004 1.663 10.767 4.36 2.758 2.701 4.458 6.411 4.459 10.53 0 4.118-1.7 7.827-4.46 10.53zM39 36v-8h-3v11h14v-3z" filter="url(#o1olf)" mask="url(&quot;#o1olg&quot;)"/></g></g></g></svg>